<?xml version="1.0" encoding="utf-8"?>
<!-- Generator: Adobe Illustrator 15.0.0, SVG Export Plug-In . SVG Version: 6.00 Build 0)  -->
<!DOCTYPE svg PUBLIC "-//W3C//DTD SVG 1.1//EN" "http://www.w3.org/Graphics/SVG/1.1/DTD/svg11.dtd">
<svg version="1.1" id="Layer_1" xmlns="http://www.w3.org/2000/svg" xmlns:xlink="http://www.w3.org/1999/xlink" x="0px" y="0px"
	 width="265px" height="500px" viewBox="0 0 265 500" enable-background="new 0 0 265 500" xml:space="preserve">
<path fill="#F4F4F4" d="M208.028,557.589l86.224-48.523c-36.973-25.252-68.676-58.911-91.895-100.17
	C118.836,260.481,176.149,69.244,330.116-17.402l518.571-291.83l36.5-121.799L286.838-94.305
	C88.879,17.098,15.191,262.974,122.577,453.792C145.33,494.225,174.434,528.962,208.028,557.589z"/>
<path fill="#F4F4F4" d="M339.291,483.721l101.729-57.25c-49.007-9.53-93.136-38.968-118.994-84.92
	c-47.803-84.946-15.116-194.008,73.007-243.6l398.899-224.485l36.503-121.8L351.755,21.047
	c-131.975,74.271-181.101,238.186-109.51,365.4C265.878,428.439,299.762,461.257,339.291,483.721z"/>
</svg>
