<?xml version="1.0" encoding="utf-8"?>
<!-- Generator: Adobe Illustrator 15.0.0, SVG Export Plug-In . SVG Version: 6.00 Build 0)  -->
<!DOCTYPE svg PUBLIC "-//W3C//DTD SVG 1.1//EN" "http://www.w3.org/Graphics/SVG/1.1/DTD/svg11.dtd">
<svg version="1.1" id="Layer_1" xmlns="http://www.w3.org/2000/svg" xmlns:xlink="http://www.w3.org/1999/xlink" x="0px" y="0px"
	 width="359px" height="387px" viewBox="0 0 359 387" enable-background="new 0 0 359 387" xml:space="preserve">
<path opacity="0.1" fill="#F5F3FF" d="M285.266,269.804c9.206,5.314,9.253,13.938,0.106,19.255l-90.632,52.668
	c-9.147,5.316-24.034,5.317-33.241,0L42.364,272.945c-9.206-5.314-9.287-13.958-0.14-19.273l90.634-52.67
	c9.146-5.315,24.065-5.297,33.272,0.018L285.266,269.804z"/>
<path fill="#B49DF4" d="M296.519,275.056l-49.342,28.468c-9.25,5.376-24.305,5.379-33.615,0.002L93.079,233.965
	c-4.694-2.711-7.042-6.275-7.031-9.832l-0.06,7.734c-0.009,3.557,2.338,7.122,7.033,9.832l120.481,69.56
	c9.312,5.375,24.366,5.375,33.617,0l49.341-28.467c4.597-2.672,6.896-6.168,6.907-9.668l0.059-7.734
	C303.414,268.89,301.114,272.385,296.519,275.056z"/>
<path fill="#EBE6FF" d="M296.526,275.056l-49.35,28.472c-9.247,5.375-24.302,5.375-33.613,0l-13.62-7.858L93.082,233.968
	c-9.309-5.372-9.402-14.112-0.139-19.501l45.75-26.387l3.582-2.069c9.25-5.375,24.334-5.358,33.645,0.015l120.482,69.559
	C305.713,260.958,305.773,269.682,296.526,275.056z"/>
<path fill="#F5F3FF" d="M245.726,269.05l-45.781,26.619L93.082,233.968c-9.309-5.372-9.402-14.112-0.139-19.501l45.75-26.387
	l106.925,61.715C254.82,255.122,254.867,263.737,245.726,269.05z"/>
<g>
	<polygon fill="#5920D6" points="346.603,87.44 346.497,124.587 317.632,141.361 317.738,104.215 	"/>
	<polygon fill="#6123EA" points="317.738,104.215 317.632,141.361 288.579,124.587 288.684,87.442 	"/>
	<polygon fill="#5920D6" points="346.603,87.44 317.738,104.215 288.684,87.442 317.55,70.667 	"/>
	<polygon fill="#4B1AD3" points="317.541,70.667 317.632,104.163 346.594,87.44 	"/>
	<path fill="#F5F3FF" d="M319.458,136.529c1.798,1.036,1.807,2.719,0.023,3.755L301.8,150.559c-1.783,1.037-4.688,1.037-6.483,0
		l-23.237-13.416c-1.796-1.038-1.812-2.724-0.027-3.761l17.679-10.273c1.784-1.037,4.694-1.034,6.489,0.003L319.458,136.529z"/>
	<polygon fill="#4B1AD3" points="317.541,70.667 288.684,87.442 317.632,104.163 346.594,87.44 	"/>
	<g>
		<polygon fill="#C42241" points="306.175,77.275 300.748,80.428 329.697,97.149 335.228,94.049 		"/>
		<polygon fill="#EA4C55" points="335.228,94.049 335.228,131.134 329.923,134.217 329.697,97.149 		"/>
	</g>
	<g>
		<polygon fill="#C42241" points="328.981,77.275 334.408,80.428 305.461,97.149 299.928,94.049 		"/>
		<polygon fill="#EA4C55" points="299.928,94.049 299.928,131.134 305.23,134.217 305.461,97.149 		"/>
	</g>
	<g>
		<path fill="#C42241" d="M305.411,72.537l5.679-3.301c-0.254,0.147-0.378,0.472-0.341,0.911c0.038,0.495,0.266,1.024,0.63,1.457
			l-5.679,3.299c-0.362-0.432-0.591-0.961-0.629-1.457C305.035,73.008,305.16,72.683,305.411,72.537z"/>
		<polygon fill="#C42241" points="305.7,74.902 311.379,71.603 316.635,77.859 310.96,81.159 		"/>
		<path fill="#EA4C55" d="M320.493,83.864l-5.678,3.299c0.018-0.01,0.038-0.022,0.054-0.037c0.254-0.208,0.261-0.717,0.006-1.219
			l5.679-3.3c0.254,0.502,0.249,1.011-0.006,1.219C320.529,83.839,320.513,83.853,320.493,83.864z"/>
		<path fill="#EA4C55" d="M314.875,85.907c0.255,0.501,0.248,1.01-0.006,1.219c-0.165,0.135-0.402,0.121-0.648-0.019
			c-0.132-0.077-0.269-0.193-0.393-0.342l-8.918-10.614c-0.856-1.015-1.423-2.32-1.513-3.483c-0.09-1.164,0.304-2.02,1.059-2.29
			c0.521-0.186,1.152-0.081,1.812,0.3c0.103,0.059,0.205,0.124,0.307,0.196c0.769,0.533,1.456,1.359,1.942,2.329L314.875,85.907z
			 M305.7,74.902l5.26,6.257l-3.749-7.488c-0.203-0.405-0.493-0.751-0.812-0.974c-0.04-0.029-0.082-0.054-0.125-0.079
			c-0.275-0.158-0.543-0.205-0.76-0.128c-0.321,0.113-0.483,0.462-0.442,0.956C305.109,73.941,305.338,74.47,305.7,74.902
			L305.7,74.902z"/>
		<polygon fill="#C42241" points="318.255,85.841 323.935,82.541 332.878,83.525 327.199,86.826 		"/>
		<path fill="#EA4C55" d="M333.536,83.405l-5.679,3.299c-0.183,0.106-0.404,0.149-0.658,0.122l5.679-3.301
			C333.13,83.554,333.353,83.511,333.536,83.405z"/>
		<path fill="#C42241" d="M334.726,79.557c-0.707-1.222-1.637-2.166-2.565-2.702c-0.931-0.538-1.861-0.668-2.572-0.263l-9.372,5.344
			l-6.02-12.031c-0.487-0.97-1.175-1.795-1.943-2.33c-0.103-0.071-0.206-0.137-0.308-0.196c-0.659-0.381-1.293-0.485-1.812-0.3
			c-0.081,0.029-0.156,0.064-0.229,0.107l-5.679,3.299c0.072-0.042,0.148-0.078,0.23-0.106c0.521-0.186,1.152-0.081,1.812,0.3
			c0.103,0.059,0.205,0.124,0.307,0.196c0.769,0.533,1.456,1.359,1.942,2.329l6.021,12.027l-0.412,0.239l0.413-0.235l0.336,0.673
			l5.679-3.3l-0.313-0.625l3.67-2.091c0.71-0.405,1.641-0.275,2.571,0.263c0.93,0.538,1.86,1.48,2.566,2.703
			c0.858,1.489,1.228,3.119,0.981,4.353c-0.146,0.728-0.491,1.258-0.985,1.543l5.68-3.299c0.491-0.287,0.837-0.816,0.981-1.543
			C335.952,82.676,335.583,81.046,334.726,79.557z"/>
		<path fill="#EA4C55" d="M329.048,82.856c0.858,1.489,1.228,3.119,0.981,4.353c-0.245,1.233-1.069,1.897-2.202,1.772l-12.792-1.411
			c-0.105-0.011-0.215-0.05-0.319-0.111c-0.276-0.159-0.542-0.469-0.699-0.834c-0.221-0.513-0.175-0.997,0.109-1.156l9.784-5.578
			c0.71-0.405,1.641-0.275,2.571,0.263C327.411,80.691,328.342,81.634,329.048,82.856z M328.382,85.874
			c0.135-0.674-0.059-1.525-0.526-2.337c-0.38-0.658-0.879-1.166-1.379-1.454c-0.499-0.288-0.999-0.357-1.38-0.141l-6.842,3.898
			l8.944,0.985C327.818,86.893,328.245,86.545,328.382,85.874L328.382,85.874z"/>
	</g>
</g>
<g>
	<path opacity="0.1" fill="#F5F3FF" d="M311.628,362.559c1.8,1.039,1.81,2.723,0.022,3.762l-17.701,10.286
		c-1.785,1.038-4.693,1.038-6.492,0l-23.266-13.433c-1.799-1.037-1.812-2.726-0.027-3.765l17.702-10.286
		c1.783-1.037,4.7-1.033,6.495,0.005L311.628,362.559z"/>
	<polygon fill="#5920D6" points="338.804,313.412 338.7,350.604 309.799,367.399 309.905,330.207 	"/>
	<polygon fill="#6123EA" points="309.905,330.207 309.799,367.399 280.711,350.604 280.817,313.412 	"/>
	<polygon fill="#5920D6" points="338.804,313.412 309.905,330.207 280.817,313.412 309.718,296.618 	"/>
	<polygon fill="#EA4C55" points="297.892,344.661 309.799,330.155 280.711,313.361 268.803,327.867 	"/>
	<polygon fill="#4B1AD3" points="309.709,296.618 309.799,330.155 338.797,313.412 	"/>
	<polygon fill="#EA4C55" points="338.799,313.428 350,327.645 321.099,344.438 309.9,330.222 	"/>
</g>
<g>
	<g>
		<g>
			<path fill="#B49DF4" d="M246.297,47.466L166.306,1.285c-2.602-1.504-4.959-1.642-6.663-0.653l-5.44,3.162
				c1.703-0.989,4.06-0.851,6.663,0.652l79.989,46.182c5.176,2.987,9.352,10.232,9.335,16.168l-0.536,195.271
				c-0.008,2.955-1.05,5.033-2.731,6.01l5.442-3.161c1.68-0.977,2.723-3.056,2.73-6.009l0.535-195.273
				C255.648,57.698,251.472,50.454,246.297,47.466z"/>
			<path fill="#F5F3FF" d="M240.854,50.628c5.176,2.987,9.352,10.232,9.335,16.168l-0.536,195.271
				c-0.017,5.949-4.221,8.343-9.396,5.355l-79.988-46.184c-5.177-2.987-9.353-10.221-9.335-16.168l0.535-195.271
				c0.018-5.936,4.221-8.342,9.396-5.354L240.854,50.628z"/>
		</g>
		<polygon fill="#FE535C" points="242.18,241.988 158.942,193.93 158.942,18.986 242.18,67.044 		"/>
		<path fill="#B49DF4" d="M190.465,223.321c0-2.688,1.898-3.771,4.241-2.418c2.341,1.352,4.242,4.629,4.242,7.315
			c0,2.688-1.9,3.771-4.242,2.418C192.364,229.284,190.465,226.01,190.465,223.321z"/>
	</g>
	<g>
		<path fill="#B49DF4" d="M207.427,40.951l-13.731-7.928c-0.556-0.322-1.009-1.186-1.009-1.928l0,0c0-0.744,0.453-1.084,1.009-0.763
			l13.731,7.928c0.558,0.322,1.011,1.186,1.011,1.929l0,0C208.438,40.93,207.985,41.272,207.427,40.951z"/>
		<polygon fill="#B49DF4" points="242.196,66.989 242.18,105.194 207.956,125.174 209.559,112.479 		"/>
		<g>
			<polygon fill="#6123EA" points="136.168,69.814 168.79,24.298 157.764,17.891 125.144,63.406 			"/>
			<polygon fill="#F5F3FF" points="146.653,75.908 179.275,30.394 168.249,23.986 135.627,69.501 			"/>
			<polygon fill="#6123EA" points="157.138,82.003 189.759,36.489 178.732,30.081 146.112,75.597 			"/>
			<polygon fill="#F5F3FF" points="167.623,88.1 200.243,42.584 189.217,36.176 156.596,81.691 			"/>
			<polygon fill="#6123EA" points="178.106,94.194 210.728,48.679 199.701,42.271 167.08,87.786 			"/>
			<polygon fill="#F5F3FF" points="188.59,100.289 221.212,54.774 210.184,48.366 177.564,93.881 			"/>
			<polygon fill="#6123EA" points="199.075,106.384 231.695,60.869 220.669,54.46 188.048,99.976 			"/>
			<polygon fill="#F5F3FF" points="209.559,112.479 242.18,66.963 231.154,60.556 198.532,106.071 			"/>
		</g>
		<path fill="#5920D6" d="M130.671,82.006l-0.769-0.444c-2.723-1.573-4.932-5.792-4.932-9.423l0.174-8.733l10.52,6.043l-0.06,8.828
			C135.604,81.909,133.396,83.578,130.671,82.006z"/>
		<path fill="#E2DFF4" d="M141.238,88.018l-0.768-0.443c-2.725-1.573-4.935-5.792-4.935-9.424l0.091-8.65l10.543,6.012v8.777
			C146.17,87.922,143.962,89.591,141.238,88.018z"/>
		<path fill="#5920D6" d="M151.729,93.989l-0.769-0.444c-2.724-1.572-4.932-5.792-4.932-9.424l0.143-8.607l10.425,6.178l0.065,8.569
			C156.661,93.892,154.453,95.561,151.729,93.989z"/>
		<path fill="#E2DFF4" d="M162.23,100.02l-0.767-0.444c-2.724-1.572-4.932-5.792-4.932-9.424l0.065-8.46l10.484,6.095l0.083,8.505
			C167.163,99.922,164.955,101.593,162.23,100.02z"/>
		<path fill="#5920D6" d="M172.698,106.198l-0.769-0.444c-2.725-1.572-4.932-5.792-4.932-9.424l0.083-8.544l10.484,6.095
			l0.066,8.588C177.63,106.101,175.421,107.771,172.698,106.198z"/>
		<path fill="#E2DFF4" d="M183.12,112.465l-0.769-0.443c-2.723-1.573-4.932-5.792-4.932-9.424l0.145-8.717l10.488,6.08v8.776
			C188.052,112.369,185.845,114.039,183.12,112.465z"/>
		<path fill="#5920D6" d="M193.785,118.666l-0.769-0.443c-2.725-1.574-4.932-5.792-4.932-9.424l-0.036-8.823l10.669,6.185v8.777
			C198.718,118.57,196.508,120.239,193.785,118.666z"/>
		<path fill="#E2DFF4" d="M204.623,125.003l-1.159-0.754c-2.723-1.573-4.932-5.792-4.932-9.423v-8.777l11.027,6.431l-0.005,8.796
			C209.554,124.907,207.346,126.576,204.623,125.003z"/>
	</g>
</g>
<path fill="#CCC9F4" d="M150.934,160.242l0.514-78.426L150.934,160.242z"/>
<g>
	<polygon fill="#3713BC" points="119.227,144.135 119.227,163.11 102.826,153.646 114.052,150.627 	"/>
	<polygon fill="#4B1AD3" points="157.734,255.523 102.83,223.825 114.054,220.802 119.23,214.307 174.154,246.018 162.906,249.005 	
		"/>
	<polygon fill="#6123EA" points="157.734,185.347 157.535,255.545 102.631,223.847 102.83,153.648 	"/>
	<polygon fill="#6123EA" points="174.154,175.839 174.154,246.018 162.906,249.005 162.906,178.828 	"/>
	<polygon fill="#5920D6" points="157.734,185.347 162.906,178.828 162.906,249.005 157.535,255.545 	"/>
	<polygon fill="#4B1AD3" points="174.152,175.844 162.902,178.828 157.728,185.345 119.227,163.11 119.227,144.135 	"/>
	<polygon fill="#3713BC" points="114.052,150.627 114.052,160.127 119.227,163.11 119.227,144.135 	"/>
	<path fill="#3713BC" d="M119.659,180.062c0,2.456-1.734,3.444-3.874,2.209c-2.14-1.235-3.875-4.227-3.875-6.684
		c0-2.454,1.735-3.443,3.875-2.208C117.925,174.614,119.659,177.607,119.659,180.062z"/>
	<path fill="#3713BC" d="M145.385,195.099c0,2.456-1.733,3.444-3.873,2.209c-2.139-1.234-3.875-4.227-3.875-6.683
		s1.736-3.444,3.875-2.209C143.652,189.652,145.385,192.644,145.385,195.099z"/>
	<g>
		<path fill="#3713BC" d="M128.543,216.893c-9.225-4.946-13.878-15.157-13.878-23.938v-5.52c0-0.916,0.647-1.282,1.441-0.824
			c0.796,0.46,1.441,1.572,1.441,2.489v5.522c0,6.955,4.932,15.463,10.995,18.963c6.063,3.5,10.996,0.69,10.996-6.269v-5.522
			c0-0.914,0.646-1.279,1.441-0.821c0.796,0.46,1.442,1.572,1.442,2.488v5.52C142.422,217.763,136.196,221.312,128.543,216.893z"/>
	</g>
	<g>
		<path fill="#EA4C55" d="M128.451,208.147c-9.224-4.947-13.878-15.157-13.878-23.939v-5.52c0-0.915,0.647-1.282,1.442-0.824
			c0.796,0.46,1.443,1.573,1.443,2.488v5.523c0,6.956,4.932,15.463,10.993,18.964c6.064,3.5,10.996,0.688,10.996-6.27v-5.522
			c0-0.914,0.646-1.28,1.441-0.821c0.797,0.46,1.444,1.572,1.444,2.486v5.521C142.332,209.016,136.104,212.565,128.451,208.147z"/>
	</g>
</g>
<g>
	<g>
		<path fill="#B49DF4" d="M326.042,183.353l-93.277-53.497c-1.763-1.019-3.36-1.111-4.513-0.441l-2.209,1.283
			c1.154-0.67,2.75-0.576,4.512,0.441l93.277,53.498c3.501,2.022,6.335,6.928,6.323,10.95l-0.145,64.879
			c-0.006,1.998-0.71,3.405-1.85,4.066l2.207-1.283c1.141-0.662,1.846-2.068,1.852-4.066l0.145-64.879
			C332.374,190.282,329.542,185.376,326.042,183.353z"/>
		<path fill="#6123EA" d="M323.901,184.58c3.5,2.022,6.333,6.927,6.323,10.95l-0.145,64.878c-0.013,4.023-2.861,5.648-6.362,3.626
			l-93.278-53.498c-3.501-2.022-6.333-6.925-6.32-10.95l0.142-64.878c0.011-4.023,2.862-5.647,6.364-3.626L323.901,184.58z"/>
	</g>
	<path fill="#F5F3FF" d="M245.503,174.358l-8.275-4.78c-1.81-1.044-3.277-3.846-3.277-6.259v-8.28c0-2.413,1.468-3.521,3.277-2.477
		l8.275,4.779c1.81,1.044,3.277,3.848,3.277,6.26v8.281C248.78,174.294,247.312,175.403,245.503,174.358z"/>
	<g>
		<path fill="#FE535C" d="M313.558,238.547c0,3.613-2.553,5.07-5.699,3.251c-3.149-1.818-5.703-6.221-5.703-9.833
			c0-3.616,2.554-5.07,5.703-3.252C311.005,230.532,313.558,234.935,313.558,238.547z"/>
		<path fill="#F5F3FF" d="M321.351,243.045c0,3.616-2.553,5.07-5.7,3.251c-3.149-1.815-5.703-6.22-5.703-9.834
			c0-3.612,2.554-5.068,5.703-3.25C318.798,235.03,321.351,239.433,321.351,243.045z"/>
	</g>
	<g>
		<path fill="#F5F3FF" d="M235.189,193.075l9.287,5.363c0.707,0.407,1.28,1.502,1.28,2.443l0,0c0,0.943-0.573,1.376-1.28,0.967
			l-9.287-5.361c-0.707-0.407-1.28-1.502-1.28-2.444l0,0C233.91,193.101,234.482,192.667,235.189,193.075z"/>
		<path fill="#F5F3FF" d="M248.83,200.975l9.288,5.363c0.706,0.407,1.278,1.502,1.278,2.444l0,0c0,0.942-0.572,1.376-1.278,0.967
			l-9.288-5.361c-0.706-0.409-1.278-1.503-1.278-2.445l0,0C247.552,201,248.124,200.568,248.83,200.975z"/>
		<path fill="#F5F3FF" d="M263.115,209.19l9.288,5.361c0.706,0.409,1.277,1.503,1.277,2.445l0,0c0,0.942-0.571,1.375-1.277,0.967
			l-9.288-5.362c-0.706-0.407-1.278-1.502-1.278-2.443l0,0C261.837,209.216,262.409,208.782,263.115,209.19z"/>
		<path fill="#F5F3FF" d="M277.223,217.347l9.287,5.361c0.706,0.41,1.28,1.504,1.28,2.447l0,0c0,0.94-0.574,1.375-1.28,0.966
			l-9.287-5.361c-0.707-0.409-1.279-1.503-1.279-2.444l0,0C275.943,217.372,276.516,216.94,277.223,217.347z"/>
	</g>
	<path fill="#4B1AD3" d="M315.394,209.034l-55.739-32.181c-0.913-0.527-1.655-1.944-1.655-3.163v-5.447
		c0-1.221,0.742-1.78,1.655-1.253l55.739,32.181c0.913,0.528,1.657,1.944,1.657,3.164v5.448
		C317.051,209.002,316.307,209.562,315.394,209.034z"/>
</g>
<g>
	<g>
		<path fill="#FE535C" d="M100.131,20.042c3.056-1.764,5.538-0.35,5.548,3.163l0.12,42.988c0.011,3.501-2.456,7.772-5.51,9.536
			l-50.85,29.359c-2.74,1.582-5.308,1.555-6.921-0.056L31.062,93.596c-2.188-2.186-2.202-6.853-0.033-11.543l11.354-24.619
			c1.6-3.466,4.158-6.452,6.899-8.035L100.131,20.042z M44.046,86.722c3.076-1.775,5.561-6.081,5.552-9.615
			c-0.011-3.534-2.513-4.95-5.588-3.174c-3.076,1.776-5.552,6.065-5.542,9.599C38.478,87.066,40.97,88.499,44.046,86.722
			L44.046,86.722z"/>
		<g>
			<path fill="#C42241" d="M101.891,18.391c-1.006-0.585-2.4-0.502-3.938,0.386L47.105,48.134c-2.74,1.583-5.299,4.569-6.898,8.034
				L28.851,80.787c-2.168,4.69-2.155,9.357,0.034,11.544l11.456,11.437c0.258,0.257,0.541,0.474,0.844,0.65l2.176,1.265
				c-0.304-0.176-0.585-0.394-0.843-0.65L31.062,93.596c-2.188-2.186-2.202-6.853-0.033-11.543l11.354-24.619
				c1.6-3.466,4.158-6.452,6.9-8.035l50.848-29.357c1.538-0.888,2.929-0.971,3.935-0.386L101.891,18.391z"/>
			<path fill="#C42241" d="M47.978,73.542l-2.176-1.265c0.996,0.58,1.614,1.811,1.62,3.564c0.011,3.535-2.477,7.84-5.551,9.616
				c-1.546,0.892-2.943,0.975-3.954,0.388l2.176,1.265c1.011,0.587,2.408,0.505,3.954-0.388c3.076-1.775,5.561-6.081,5.552-9.615
				C49.593,75.353,48.976,74.122,47.978,73.542z"/>
		</g>
	</g>
	<g>
		<path fill="#FFFFFF" d="M67.144,66.969c-1.046-0.596-1.569-1.944-1.569-4.044c0-1.407,0.242-2.758,0.725-4.052
			c0.482-1.293,1.15-2.453,2.005-3.476c0.854-1.023,1.814-1.844,2.88-2.459c1.066-0.616,2.027-0.904,2.88-0.868
			c0.854,0.038,1.522,0.425,2.006,1.162c0.483,0.737,0.722,1.809,0.722,3.216c0,2.099-0.521,4.052-1.566,5.854
			c-1.047,1.805-2.394,3.182-4.043,4.134C69.537,67.388,68.188,67.565,67.144,66.969z M83.581,46.126l5.096-2.942L74.26,75.734
			l-5.096,2.942L83.581,46.126z M72.135,61.439c0.251-0.619,0.378-1.459,0.378-2.521c0-1.06-0.126-1.755-0.378-2.083
			c-0.252-0.328-0.569-0.381-0.95-0.161c-0.381,0.221-0.698,0.64-0.95,1.258c-0.251,0.619-0.376,1.458-0.376,2.519
			c0,1.062,0.125,1.757,0.376,2.084c0.252,0.329,0.569,0.38,0.95,0.161C71.566,62.476,71.883,62.058,72.135,61.439z M82.615,69.456
			c-1.044-0.596-1.568-1.943-1.568-4.044c0-1.407,0.242-2.757,0.725-4.051c0.481-1.294,1.149-2.452,2.004-3.478
			c0.855-1.022,1.814-1.843,2.881-2.458c1.065-0.614,2.026-0.903,2.88-0.867c0.855,0.038,1.523,0.424,2.005,1.162
			c0.483,0.737,0.724,1.808,0.724,3.215c0,2.101-0.523,4.053-1.568,5.856c-1.046,1.804-2.394,3.181-4.042,4.133
			C85.008,69.875,83.661,70.054,82.615,69.456z M87.608,63.928c0.252-0.619,0.377-1.458,0.377-2.521c0-1.06-0.125-1.755-0.377-2.083
			c-0.251-0.326-0.568-0.382-0.95-0.162c-0.383,0.221-0.699,0.642-0.95,1.259c-0.251,0.619-0.378,1.458-0.378,2.519
			c0,1.062,0.126,1.757,0.378,2.085c0.25,0.329,0.567,0.381,0.95,0.161C87.04,64.965,87.356,64.545,87.608,63.928z"/>
	</g>
</g>
<g>
	<g>
		<path fill="#B49DF4" d="M161.432,115.792l-42.712-24.59c-1.438-0.831-2.741-0.907-3.684-0.361l-1.804,1.048
			c0.942-0.547,2.246-0.47,3.684,0.361l42.711,24.589c2.858,1.651,5.17,5.655,5.161,8.938l-0.116,20.066
			c-0.004,1.631-0.582,2.779-1.511,3.32l1.803-1.047c0.929-0.541,1.505-1.689,1.511-3.32l0.118-20.065
			C166.602,121.446,164.29,117.442,161.432,115.792z"/>
		<path fill="#6123EA" d="M159.686,116.751c2.858,1.649,5.17,5.654,5.161,8.938l-0.117,20.064c-0.01,3.285-2.336,4.611-5.195,2.96
			l-42.712-24.589c-2.859-1.651-5.17-5.655-5.162-8.94l0.118-20.064c0.008-3.286,2.335-4.611,5.195-2.961L159.686,116.751z"/>
	</g>
	<g>
		<g>
			<path fill="#FFFFFF" d="M139.677,115.497l-16.224-9.368c-0.447-0.257-0.807-0.947-0.807-1.541l0,0c0-0.594,0.36-0.867,0.807-0.61
				l16.224,9.369c0.446,0.257,0.807,0.947,0.807,1.541l0,0C140.484,115.481,140.124,115.754,139.677,115.497z"/>
			<path fill="#FFFFFF" d="M150.641,121.827l-5.854-3.381c-0.445-0.257-0.807-0.946-0.807-1.541l0,0c0-0.594,0.362-0.867,0.807-0.61
				l5.854,3.381c0.446,0.256,0.807,0.946,0.807,1.541l0,0C151.447,121.812,151.087,122.084,150.641,121.827z"/>
		</g>
		<g>
			<path fill="#FFFFFF" d="M139.677,129.444l-16.224-9.369c-0.447-0.256-0.807-0.947-0.807-1.541l0,0c0-0.595,0.36-0.868,0.807-0.61
				l16.224,9.368c0.446,0.257,0.807,0.947,0.807,1.541l0,0C140.484,129.427,140.124,129.702,139.677,129.444z"/>
			<path fill="#FFFFFF" d="M150.641,135.774l-5.854-3.381c-0.445-0.257-0.807-0.948-0.807-1.541l0,0
				c0-0.593,0.362-0.866,0.807-0.609l5.854,3.379c0.446,0.258,0.807,0.948,0.807,1.542l0,0
				C151.447,135.757,151.087,136.031,150.641,135.774z"/>
		</g>
		<g>
			<path fill="#FFFFFF" d="M134.417,117.282l16.224,9.367c0.446,0.257,0.807,0.947,0.807,1.542l0,0c0,0.594-0.36,0.867-0.807,0.61
				l-16.224-9.369c-0.446-0.257-0.806-0.946-0.806-1.541l0,0C133.61,117.298,133.97,117.024,134.417,117.282z"/>
			<path fill="#FFFFFF" d="M123.453,110.952l5.854,3.381c0.445,0.257,0.808,0.947,0.808,1.54l0,0c0,0.593-0.362,0.867-0.808,0.61
				l-5.854-3.38c-0.447-0.256-0.807-0.947-0.807-1.542l0,0C122.646,110.967,123.006,110.695,123.453,110.952z"/>
		</g>
	</g>
</g>
<g>
	<path opacity="0.1" fill="#F5F3FF" d="M19.355,329.992c9.919,5.864,26.05,5.837,36.031-0.068
		c9.981-5.902,10.032-15.44,0.114-21.306c-9.92-5.867-26.052-5.837-36.033,0.065S9.436,324.127,19.355,329.992z"/>
	<path fill="#4702AB" d="M27.062,313.435c0.356,1.738,2.218,7.758,2.078,10.945c-0.144,3.257-1.015,6.528-3.299,6.989
		c-2.726,0.554-5.033-2.386-5.702-4.59c-0.67-2.204-0.574-9.646-0.185-11.41C20.342,313.604,27.062,313.435,27.062,313.435z"/>
	<path fill="#E1E7EF" d="M44.444,297.646c0.136,1.632,0.408,3.63,0.816,4.281c0.408,0.649-5.899,3.346-5.899,3.346l-1.679-4.276
		l0.953-4.229L44.444,297.646z"/>
	<path fill="#6123EA" d="M26.344,309.434c0.555,1.511,0.95,3.086,0.606,4.873c-0.342,1.787,2.516,5.924,1.472,11.52
		c-0.622,3.332-1.979,4.078-3.349,4.078s-4.084-1.563-4.805-5.508c-0.618-3.381-0.555-9.827-0.207-12.98
		C20.955,303.345,26.369,309.119,26.344,309.434z"/>
	<path fill="#E1E7EF" d="M26.021,309.698c0,0,0.585,1.755,0.179,2.636c-0.3,0.646-0.646,0.891-2.152,0.598
		c-1.312-0.255-1.979,0.24-2.725,0.422c-0.754,0.185-1.041-1.855-0.862-2.81C20.641,309.589,26.021,309.698,26.021,309.698z"/>
	<path fill="#FE535C" d="M46.128,207.401c0,0,3.221,33.579-0.348,57.722c-0.769,16.03-0.284,29.563-0.762,32.377
		c-0.479,2.741-6.957,2.448-7.363,0.741c-0.592-3.027-3.046-17.939-1.351-32.532c-0.622-10.874-2.637-20.912-2.637-20.912
		s-0.961,9.083-2.148,20.147c-1.759,16.383-3.826,39.615-4.257,42.865c-0.47,4.337-7.164,4.146-7.828,1.429
		c-0.298-1.22-1.667-21.985,0.809-42.699c-1.77-25.073-4.16-43.637-0.038-57.264C34.113,215.655,46.128,207.401,46.128,207.401z"/>
	<g>
		<path fill="#C42241" d="M46.128,207.401c0,0,0.234,1.907,0.234,2.752c-2.901,4.804-20.231,8.441-26.938,2.102l0.607-2.361
			L46.128,207.401z"/>
	</g>
	<path fill="#6123EA" d="M19.565,209.551c0.806,8.095,27.078,4.296,26.563-2.149c-1.184-14.813,4.097-37.17-2.375-45.721
		c-2.885-3.812-18.801,1.157-18.801,1.157s-7.321,4.912-8.083,7.612C14.232,179.814,18.027,194.088,19.565,209.551z"/>
	<path fill="#6123EA" d="M34.856,160.874c0,0,5.965-1.373,10.475,0.258c6.515,2.359,9.732,16.172,13.784,21.277
		c3.975,5.009,18.041,12.684,18.041,12.684l-3.029,6.659c0,0-16.45-8.729-20.934-13.765c-2.498-2.807-8.752-11.665-8.752-11.665
		l-3.611-3.623L34.856,160.874z"/>
	<path fill="#4B1AD3" d="M34.411,167.46c5.27,6.136,5.849,30.206,5.983,36.83c-0.704,3.806-2.738,6.676-2.738,6.676
		s-4.072-2.875-4.87-5.094c-0.389-3.551,2.771-27.816,0.534-38.706C33.262,166.884,34.411,167.46,34.411,167.46z"/>
	<path fill="#AB8DFF" d="M35.502,163.944c-0.124,2.279-0.6,3.583-1.142,3.911c-0.654,0.395-1.6,0.303-2.981-0.702
		c-1.382-1.005-0.802-4.521-0.802-4.521S35.658,161.078,35.502,163.944z"/>
	<path fill="#FEC2BE" d="M35.106,155.094c0,0,0.773,5.234,0.111,6.477c-0.664,1.245-5.192,3.809-8.47-0.439
		c-0.139-6.222-0.574-11.878-0.574-11.878L35.106,155.094z"/>
	<path fill="#EDADAB" d="M28.088,152.086c0,0,1.268,4.609,7.394,7.247c-0.177-2.622-0.356-4.096-0.356-4.096L28.088,152.086z"/>
	<path fill="#6123EA" d="M24.952,162.838c-3.997,1.942-11.629,5.693-14.89,9.304c-6.072,6.723-10.459,18.736-10.034,25.686
		c0.419,6.849,15.444,21.723,15.444,21.723l5.061-4.478c0,0-11.127-11.518-11.898-17.048c-1.004-7.199,11.511-19.069,11.511-19.069
		l8.257-4.429L24.952,162.838z"/>
	<path fill="#4B1AD3" d="M33.909,162.723c0.368,0.023,1.383,2.77,1.882,4.03c0.137,0.346,0.58,0.427,0.826,0.152
		c0.175-0.196,0.33-0.447,0.464-0.718c0.612-1.233,0.583-2.687-0.097-3.881c-0.361-0.633-0.778-1.638-1.502-2.064
		C35.514,161.488,33.909,162.723,33.909,162.723z"/>
	<path fill="#4B1AD3" d="M31.775,163.454c0,0-0.438,2.194-1.417,4.757c-0.07,0.183-0.29,0.271-0.458,0.176
		c-2.524-1.428-4.173-4.116-4.735-5.14c-0.139-0.254-0.271-0.584-0.09-0.809c0.298-0.362,0.966-1.295,1.662-1.708
		C27.275,162.128,29.65,163.497,31.775,163.454z"/>
	<g>
		<path fill="#C42241" d="M33.668,244.797c0,0,3.541-11.131,5.728-19.103c-1.327,1.434-3.14,2.515-4.796,2.515
			C34.35,231.52,33.668,244.797,33.668,244.797z"/>
	</g>
	<path fill="#AB8DFF" d="M34.36,167.07c5.538,5.884,7.188,29.9,7.617,36.512c-0.535,3.836-2.438,6.796-2.438,6.796
		s-4.195-2.681-5.091-4.86c-0.546-3.527,1.53-27.917-1.19-38.691C33.187,166.548,34.36,167.07,34.36,167.07z"/>
	<polygon fill="#4B1AD3" points="46.92,179.886 46.358,174.535 52.579,187.27 	"/>
	<path fill="#4702AB" d="M57.445,312.502c0.135,1.045,0.086,2.175-1.145,2.787c-1.414,0.7-4.096,0.733-7.194-1.359
		c-3.097-2.092-4.083-4.811-5.888-5.334c-1.804-0.523-4.237-0.547-5.104-1.695c-1.407-1.859-0.183-2.627-0.183-2.627L57.445,312.502
		z"/>
	<path fill="#6123EA" d="M42.686,302.81c1.331-1.978,2.62-3.136,4.299-1.349c1.748,1.863,2.496,2.976,4.209,4.227
		c1.253,0.915,6.07,4.676,6.251,6.814c0.18,2.139-1.748,2.597-5.241,1.853c-3.495-0.744-6.502-5.304-7.669-6.13
		c-1.316-0.929-5.582-1.267-6.58-2.336s-0.272-4.892-0.272-4.892S41.937,303.926,42.686,302.81z"/>
	<path fill="#FEC2BE" d="M43.597,137.057c0,0,0.856,5.507-0.346,8.944c0.084,3.776-1.334,9.509-4.052,11.655
		c-3.001,2.372-10.612-3.59-10.612-3.59s-5.446-10.128-3.229-13.692C27.575,136.809,42.858,131.078,43.597,137.057z"/>
	<path fill="#4702AB" d="M44.095,141.523c1.708-2.218,1.019-6.896-3.701-10.047c-4.067-2.715-11.952-3.308-14.602,2.462
		c-5.812,0.961-3.326,8.265,0.542,16.845c-0.935-4.825,0.187-6.988,2.295-5.376c1.234,0.943,1.413,3.13,2.209,3.154
		c1.22,0.037-0.032-5.26,2.955-6.731C38.102,139.706,42.851,143.135,44.095,141.523z"/>
	<path fill="#FEC2BE" d="M23.89,147.279c0,1.71,1.382,3.686,2.847,3.686s3.136-1.387,3.136-3.097c0-1.709-1.325-3.096-3.136-3.096
		C25.272,144.772,23.89,145.57,23.89,147.279z"/>
	<polygon fill="#4B1AD3" points="16.198,183.345 17.973,180.341 19.529,209.195 	"/>
	<path fill="#4B1AD3" d="M73.916,197.593c-0.822,1.861-0.713,3.729,0.243,4.173c0.958,0.443,2.399-0.706,3.221-2.566
		c0.821-1.863,0.713-3.731-0.243-4.175C76.178,194.581,74.737,195.731,73.916,197.593z"/>
	<path fill="#4B1AD3" d="M17.127,216.168c-1.446,1.189-2.187,2.705-1.655,3.382c0.532,0.678,2.135,0.265,3.581-0.924
		c1.447-1.19,2.187-2.705,1.655-3.383C20.176,214.565,18.572,214.979,17.127,216.168z"/>
	<g>
		<path fill="#C42241" d="M17.973,225.402c6.871,0,10.833-8.541,10.833-11.255h-0.288c0,2.644-3.855,10.961-10.546,10.961V225.402z"
			/>
	</g>
	<path fill="#FEC2BE" d="M73.413,199.314c1.333,0.919,1.463,2.192,1.991,3.502c0.974,2.42,1.382,2.062,2.116,4.007
		c0.287,0.757,0.663,1.559,1.04,2c0.401,0.469,1.189,0.083,1.189-0.854c0-1.82-0.962-3.72-1.966-5.366
		c1.749,0.371,3.21,0.472,5.08,1.666c1.687,1.076,3.521,2.541,5.381,2.994c0.526,0.129,1.172-0.325,0.918-0.649
		c-1.172-1.49-4.273-3.367-6.79-5.117c3.792,1.563,6.598,3.754,7.536,4.304c0.612,0.36,1.597-0.228,1.417-0.485
		c-1.147-1.641-6.241-4.157-7.087-4.768c2.152,0.44,3.614,2.056,4.585,2.243c0.418,0.081,1.029-0.331,0.84-0.588
		c-0.622-0.845-2.266-1.747-3.18-2.287c-2.164-1.28-5.211-2.621-8.601-2.519c-1.535-0.566-3.125-1.213-3.125-1.213
		S72.835,198.917,73.413,199.314z"/>
	<path fill="#FEC2BE" d="M18.811,215.151l1.748,1.729c0,0,1.748-0.391,2.36-0.24s2.081,1.059,2.564,1.396
		c0.483,0.338,1.84,2.708,2.486,3.553c0.268,0.918-1.644,0.741-2.475-0.423c-0.755-1.057-1.962-2.354-2.378-2.56
		c0.703,0.645,1.649,2.413,2.027,2.753c-1.391,1.923-4.216,3.298-5.613,3.742c-0.855-1.812-1.536-2.568-1.439-4.04
		c-0.082-1.331-1.669-2.581-2.443-3.075C16.068,216.995,17.513,215.389,18.811,215.151z"/>
	<path fill="#4702AB" d="M31.266,179.952l-8.15,1.861L31.266,179.952z"/>
</g>
<g>
	<path opacity="0.1" fill="#F5F3FF" d="M138.994,351.437c2.567,1.482,2.581,3.887,0.029,5.368l-25.276,14.69
		c-2.551,1.481-6.702,1.481-9.27,0l-33.225-19.184c-2.567-1.481-2.59-3.891-0.039-5.372l25.276-14.691
		c2.55-1.481,6.711-1.475,9.279,0.007L138.994,351.437z"/>
	<g>
		<g>
			<path fill="#C42241" d="M144.916,279.014c-0.449-0.512-0.924-0.904-1.393-1.174c-0.848-0.49-1.671-0.576-2.277-0.223
				l-1.887,1.095c0.607-0.353,1.431-0.267,2.277,0.223c0.469,0.27,0.945,0.665,1.393,1.173c1.587,1.804,2.24,4.382,1.464,5.764
				l-6.734,11.944c-0.158,0.282-0.365,0.492-0.606,0.634l1.886-1.097c0.242-0.14,0.448-0.352,0.606-0.634l6.734-11.943
				C147.155,283.392,146.503,280.813,144.916,279.014z"/>
			<path fill="#FE535C" d="M141.636,278.935c0.469,0.27,0.945,0.665,1.393,1.173c1.587,1.804,2.24,4.382,1.464,5.764l-6.734,11.944
				c-0.555,0.99-1.696,1.092-2.881,0.406c-0.469-0.271-0.946-0.664-1.395-1.176c-1.587-1.8-2.24-4.379-1.464-5.762l6.733-11.943
				C139.314,278.355,140.453,278.25,141.636,278.935z"/>
			<path fill="#C42241" d="M160.498,305.915l-4.562-17.954c-0.435-1.725-1.631-3.34-2.914-4.078c-0.335-0.194-0.675-0.328-1.01-0.39
				l-0.205-0.037c-0.461-0.085-0.861-0.018-1.185,0.169l-1.887,1.097c0.324-0.188,0.724-0.254,1.186-0.171l0.204,0.04
				c0.334,0.06,0.675,0.194,1.01,0.387c1.283,0.74,2.478,2.354,2.914,4.081l4.562,17.955c0.394,1.55,0.067,2.771-0.736,3.24
				l1.886-1.097C160.566,308.691,160.89,307.467,160.498,305.915z"/>
			<path fill="#FE535C" d="M151.136,284.978c1.283,0.74,2.478,2.354,2.914,4.081l4.562,17.955c0.55,2.177-0.31,3.704-1.925,3.411
				l-0.198-0.035c-0.333-0.062-0.674-0.195-1.009-0.39c-1.283-0.738-2.48-2.355-2.923-4.085l-4.552-17.947
				c-0.559-2.182,0.309-3.708,1.918-3.417l0.204,0.04C150.461,284.652,150.801,284.785,151.136,284.978z"/>
		</g>
		<g>
			<path fill="#5920D6" d="M140.739,330.183l35.239-20.477l-7.343,27.333c-0.523,1.944-1.793,3.602-3.533,4.613l-32.522,18.9
				L140.739,330.183z"/>
			<polygon fill="#3713BC" points="82.586,296.611 117.828,276.131 175.978,309.706 140.739,330.183 			"/>
			<polygon fill="#4B1AD3" points="87.379,296.603 117.831,278.907 171.187,309.71 140.735,327.409 			"/>
			<path fill="#6123EA" d="M140.739,330.183l-8.16,30.37l-38.055-21.972c-2.522-1.455-4.296-3.926-4.868-6.78l-7.069-35.189
				L140.739,330.183z"/>
			<polygon fill="#3713BC" points="117.831,278.907 118.236,314.419 87.379,296.603 			"/>
		</g>
		<path fill="#C42241" d="M141.242,280.962c-0.464-0.268-0.885-0.294-1.186-0.118l-36.783,21.377
			c0.303-0.178,0.722-0.151,1.187,0.117c0.914,0.528,1.655,1.811,1.653,2.87c-0.002,0.522-0.188,0.89-0.484,1.063l36.781-21.376
			c0.298-0.173,0.482-0.539,0.484-1.062C142.896,282.772,142.155,281.491,141.242,280.962z"/>
		<path fill="#C42241" d="M150.757,286.695c-0.465-0.269-0.885-0.296-1.187-0.117l-36.783,21.374
			c0.303-0.177,0.723-0.149,1.187,0.117c0.914,0.529,1.656,1.812,1.651,2.871c0,0.522-0.186,0.891-0.483,1.063l36.781-21.376
			c0.298-0.173,0.482-0.541,0.485-1.063C152.411,288.507,151.671,287.223,150.757,286.695z"/>
		<g>
			<path fill="#C42241" d="M108.452,300.857c-0.45-0.51-0.925-0.903-1.394-1.172c-0.847-0.489-1.671-0.575-2.277-0.223l-1.886,1.094
				c0.606-0.351,1.43-0.267,2.277,0.225c0.469,0.271,0.944,0.664,1.394,1.176c1.586,1.8,2.239,4.378,1.464,5.76l-6.735,11.945
				c-0.158,0.281-0.364,0.491-0.606,0.633l1.887-1.097c0.241-0.14,0.448-0.352,0.606-0.634l6.734-11.944
				C110.691,305.239,110.038,302.659,108.452,300.857z"/>
			<path fill="#FE535C" d="M105.171,300.781c0.469,0.271,0.944,0.664,1.394,1.176c1.586,1.8,2.239,4.378,1.464,5.76l-6.735,11.945
				c-0.554,0.989-1.695,1.091-2.881,0.406c-0.469-0.271-0.946-0.666-1.395-1.178c-1.588-1.8-2.239-4.377-1.465-5.76l6.734-11.945
				C102.85,300.201,103.988,300.099,105.171,300.781z"/>
			<path fill="#C42241" d="M124.034,327.764l-4.562-17.955c-0.437-1.726-1.633-3.342-2.915-4.081
				c-0.334-0.193-0.676-0.326-1.008-0.389l-0.207-0.039c-0.459-0.083-0.86-0.017-1.184,0.17l-1.886,1.098
				c0.323-0.188,0.724-0.253,1.184-0.171l0.206,0.039c0.333,0.062,0.674,0.195,1.009,0.387c1.283,0.742,2.478,2.356,2.915,4.081
				l4.561,17.954c0.393,1.551,0.068,2.774-0.737,3.242l1.887-1.098C124.101,330.536,124.425,329.313,124.034,327.764z"/>
			<path fill="#FE535C" d="M114.671,306.822c1.282,0.742,2.478,2.356,2.915,4.081l4.561,17.956c0.551,2.175-0.309,3.705-1.926,3.411
				l-0.196-0.036c-0.335-0.062-0.675-0.194-1.008-0.388c-1.283-0.741-2.48-2.356-2.924-4.084l-4.553-17.951
				c-0.558-2.18,0.31-3.705,1.918-3.415l0.206,0.039C113.996,306.497,114.336,306.631,114.671,306.822z"/>
		</g>
	</g>
</g>
</svg>
