<?xml version="1.0" encoding="utf-8"?>
<!-- Generator: Adobe Illustrator 15.0.0, SVG Export Plug-In . SVG Version: 6.00 Build 0)  -->
<!DOCTYPE svg PUBLIC "-//W3C//DTD SVG 1.1//EN" "http://www.w3.org/Graphics/SVG/1.1/DTD/svg11.dtd">
<svg version="1.1" id="Layer_1" xmlns="http://www.w3.org/2000/svg" xmlns:xlink="http://www.w3.org/1999/xlink" x="0px" y="0px"
	 width="65px" height="65px" viewBox="0 0 65 65" enable-background="new 0 0 65 65" xml:space="preserve">
<g>
	<circle fill="#E9EAEB" cx="34.52" cy="29.168" r="20.935"/>
</g>
<g>
	<g>
		<rect x="55.107" y="6.168" fill="#BCC0C4" width="2" height="6"/>
	</g>
	<g>
		<rect x="53.107" y="8.168" fill="#BCC0C4" width="6" height="2"/>
	</g>
</g>
<g>
	<g>
		<rect x="47.979" y="34.168" fill="#BCC0C4" width="2" height="6"/>
	</g>
	<g>
		<rect x="45.979" y="36.168" fill="#BCC0C4" width="6" height="2"/>
	</g>
</g>
<g>
	<g>
		<rect x="32.082" y="39.168" fill="#505050" width="2" height="18"/>
	</g>
	<g>
		<rect x="24.082" y="56.168" fill="#505050" width="18" height="2"/>
	</g>
	<g>
		<path fill="#FFFFFF" d="M24.173,28.798c-0.733,0.673-1.592,1.234-2.559,1.648c-4.571,1.951-9.859-0.175-11.811-4.746
			c-1.952-4.571,0.174-9.859,4.746-11.811c4.571-1.95,9.859,0.174,11.811,4.746c0.411,0.968,0.643,1.968,0.706,2.961"/>
		<path fill="#505050" d="M18.084,32.174c-1.262,0-2.524-0.242-3.73-0.727c-2.479-0.997-4.421-2.898-5.47-5.354
			c-1.048-2.457-1.077-5.175-0.081-7.653c0.996-2.478,2.897-4.421,5.354-5.47c5.072-2.165,10.958,0.202,13.123,5.273
			c0.448,1.056,0.712,2.162,0.785,3.29l-1.997,0.128c-0.058-0.902-0.269-1.788-0.628-2.634c-1.731-4.056-6.44-5.948-10.498-4.217
			c-1.966,0.839-3.487,2.393-4.284,4.375c-0.797,1.982-0.773,4.157,0.065,6.123c1.731,4.058,6.439,5.952,10.498,4.219
			c0.843-0.361,1.609-0.854,2.275-1.465l1.353,1.474c-0.833,0.764-1.789,1.38-2.841,1.831
			C20.746,31.904,19.416,32.174,18.084,32.174z"/>
	</g>
	<g>
		<polygon fill="#A3D4FF" points="49.082,22.168 33.082,39.168 17.082,22.168 		"/>
		<path fill="#505050" d="M33.082,40.168c-0.275,0-0.539-0.113-0.729-0.314l-16-17c-0.273-0.291-0.348-0.716-0.19-1.082
			c0.158-0.366,0.519-0.604,0.918-0.604h32c0.399,0,0.76,0.237,0.918,0.604s0.084,0.792-0.188,1.082l-16,17
			C33.621,40.055,33.357,40.168,33.082,40.168z M19.396,23.168l13.686,14.541l13.686-14.541H19.396z"/>
	</g>
</g>
</svg>
