<?xml version="1.0" encoding="utf-8"?>
<!-- Generator: Adobe Illustrator 15.0.0, SVG Export Plug-In . SVG Version: 6.00 Build 0)  -->
<!DOCTYPE svg PUBLIC "-//W3C//DTD SVG 1.1//EN" "http://www.w3.org/Graphics/SVG/1.1/DTD/svg11.dtd">
<svg version="1.1" id="Layer_1" xmlns="http://www.w3.org/2000/svg" xmlns:xlink="http://www.w3.org/1999/xlink" x="0px" y="0px"
	 width="65px" height="65px" viewBox="0 0 65 65" enable-background="new 0 0 65 65" xml:space="preserve">
<g>
	<g>
		<circle fill="#E9EAEB" cx="37.565" cy="27.047" r="21"/>
	</g>
	<g>
		<rect x="1.565" y="34.047" fill="#BCC0C4" width="18" height="2"/>
	</g>
	<g>
		<rect x="15.565" y="9.047" fill="#BCC0C4" width="21" height="2"/>
	</g>
	<g>
		<circle fill="#FFFFFF" cx="56.082" cy="21.394" r="5.436"/>
		<path fill="#2A5082" d="M56.076,27.831c-3.352,0-6.169-2.621-6.413-5.967c-0.126-1.714,0.424-3.375,1.547-4.677
			c1.124-1.301,2.687-2.087,4.401-2.213c3.549-0.253,6.634,2.447,6.89,5.95c0.126,1.714-0.424,3.375-1.547,4.677
			c-1.124,1.301-2.687,2.086-4.401,2.212C56.393,27.825,56.233,27.831,56.076,27.831z M56.087,16.957
			c-0.108,0-0.219,0.004-0.329,0.012c-1.182,0.086-2.26,0.628-3.034,1.525s-1.153,2.042-1.066,3.224
			c0.177,2.416,2.3,4.28,4.749,4.101c1.182-0.086,2.26-0.628,3.034-1.525c0.774-0.896,1.153-2.042,1.066-3.223
			C60.338,18.764,58.396,16.957,56.087,16.957z"/>
	</g>
	<g>
		<path fill="#A3D4FF" d="M51.47,33.469l-5.359-11.75c0,0-5.201-4.941-7.545-5.671h-15c0.579,2.158,2.458,3.833,5.166,4.249
			l7.341,0.911l3.144,4.211l-6.51,6.712l-0.359,0.45c-3.291,4.131-1.163,7.563,2.081,11.2l3.704,3.832l-10.01,5.822l1.528,2.611
			l14.855-4.773c1.674-0.604,2.331-2.621,1.334-4.094l-5.741-8.479l4.579-4.656c0,0,2.552,4.148,3.888,5.002h7.173
			c3.858,0,5.827-4,5.827-4L51.47,33.469z"/>
	</g>
	<g>
		<path fill="#2A5082" d="M29.957,56.999l-0.612-1.904L44.2,50.321c0.472-0.171,0.857-0.568,1.023-1.079
			c0.166-0.51,0.089-1.058-0.212-1.502l-6.2-9.156l6.049-6.151l0.669,1.087c0.93,1.512,2.51,3.782,3.368,4.526h6.841
			c1.943,0,3.339-1.257,4.139-2.252l-9.094-1.421l-5.502-12.063c-1.473-1.384-5.138-4.616-6.881-5.264H25.09
			c0.77,1.187,2.11,2.002,3.793,2.261l7.735,0.959l3.909,5.236l-7.104,7.323l-0.295,0.377c-2.695,3.384-1.36,6.094,2.045,9.911
			l4.564,4.721L28.625,54.3l-1.006-1.729l8.906-5.181l-2.816-2.914c-3.111-3.486-6.072-7.588-2.145-12.518l0.359-0.451l5.981-6.173
			l-2.379-3.187l-6.918-0.859c-3.016-0.462-5.308-2.37-6.009-4.982l-0.338-1.259l16.601,0.045c2.495,0.776,7.387,5.378,7.937,5.9
			l0.141,0.134l5.217,11.437l10.906,1.705l-0.6,1.22c-0.092,0.187-2.295,4.559-6.725,4.559h-7.465l-0.246-0.157
			c-1.074-0.687-2.608-2.863-3.518-4.248l-3.124,3.177l5.282,7.801c0.649,0.959,0.816,2.141,0.457,3.242
			c-0.358,1.103-1.189,1.96-2.28,2.353L29.957,56.999z"/>
	</g>
	<g>
		<g>
			<rect x="19.565" y="26.047" fill="#2A5082" width="9" height="2"/>
		</g>
		<g>
			<rect x="13.565" y="26.047" fill="#2A5082" width="4" height="2"/>
		</g>
		<g>
			<rect x="9.565" y="26.047" fill="#2A5082" width="2" height="2"/>
		</g>
	</g>
	<g>
		
			<rect x="18.979" y="39.275" transform="matrix(0.4331 0.9013 -0.9013 0.4331 56.3988 10.3405)" fill="#2A5082" width="2" height="21.461"/>
	</g>
	<g>
		
			<rect x="17.252" y="33.901" transform="matrix(0.5776 0.8163 -0.8163 0.5776 44.9622 4.3768)" fill="#2A5082" width="2" height="23.465"/>
	</g>
</g>
</svg>
