<?xml version="1.0" encoding="utf-8"?>
<!-- Generator: Adobe Illustrator 15.0.0, SVG Export Plug-In . SVG Version: 6.00 Build 0)  -->
<!DOCTYPE svg PUBLIC "-//W3C//DTD SVG 1.1//EN" "http://www.w3.org/Graphics/SVG/1.1/DTD/svg11.dtd">
<svg version="1.1" id="Layer_1" xmlns="http://www.w3.org/2000/svg" xmlns:xlink="http://www.w3.org/1999/xlink" x="0px" y="0px"
	 width="65px" height="65px" viewBox="0 0 65 65" enable-background="new 0 0 65 65" xml:space="preserve">
<g>
	<g>
		<circle fill="#E9EAEB" cx="41.108" cy="20.5" r="18"/>
	</g>
	<g>
		<rect x="6.108" y="19.5" fill="#FFFFFF" width="36" height="40"/>
		<path fill="#2A5082" d="M43.108,60.5h-38v-42h38V60.5z M7.108,58.5h34v-38h-34V58.5z"/>
	</g>
	<g>
		<rect x="14.108" y="23.5" fill="#2A5082" width="4" height="2"/>
	</g>
	<g>
		<path fill="#2A5082" d="M35.108,24.5h-2v-8.977c0-4.132-4.216-7.012-8-7.012s-8,2.879-8,7.012V24.5h-2v-8.977
			c0-4.801,4.673-9.012,10-9.012s10,4.211,10,9.012V24.5z"/>
	</g>
	<g>
		<rect x="32.108" y="23.5" fill="#2A5082" width="4" height="2"/>
	</g>
	<g>
		<rect x="32.108" y="23.5" fill="#2A5082" width="4" height="2"/>
	</g>
	<g>
		<rect x="32.108" y="33.5" fill="#A3D4FF" width="24" height="26"/>
		<path fill="#2A5082" d="M57.108,60.5h-26v-28h26V60.5z M33.108,58.5h22v-24h-22V58.5z"/>
	</g>
	<g>
		<path fill="#2A5082" d="M44.614,51.145c-3.526,0-6.506-3.032-6.506-6.621V38.5h2v6.023c0,2.462,2.105,4.621,4.506,4.621
			c2.395,0,4.494-2.159,4.494-4.621V38.5h2v6.023C51.108,48.112,48.135,51.145,44.614,51.145z"/>
	</g>
	<g>
		<rect x="37.108" y="37.5" fill="#2A5082" width="4" height="2"/>
	</g>
	<g>
		<rect x="48.108" y="37.5" fill="#2A5082" width="4" height="2"/>
	</g>
	<g>
		<g>
			<rect x="50.108" y="21.5" fill="#BCC0C4" width="2" height="6"/>
		</g>
		<g>
			<rect x="48.108" y="23.5" fill="#BCC0C4" width="6" height="2"/>
		</g>
	</g>
	<g>
		<g>
			<rect x="41.108" y="7.5" fill="#BCC0C4" width="2" height="6"/>
		</g>
		<g>
			<rect x="39.108" y="9.5" fill="#BCC0C4" width="6" height="2"/>
		</g>
	</g>
	<g>
		<g>
			<rect x="6.108" y="3.5" fill="#BCC0C4" width="2" height="6"/>
		</g>
		<g>
			<rect x="4.108" y="5.5" fill="#BCC0C4" width="6" height="2"/>
		</g>
	</g>
</g>
</svg>
