<?xml version="1.0" encoding="utf-8"?>
<!-- Generator: Adobe Illustrator 15.0.0, SVG Export Plug-In . SVG Version: 6.00 Build 0)  -->
<!DOCTYPE svg PUBLIC "-//W3C//DTD SVG 1.1//EN" "http://www.w3.org/Graphics/SVG/1.1/DTD/svg11.dtd">
<svg version="1.1" id="Layer_1" xmlns="http://www.w3.org/2000/svg" xmlns:xlink="http://www.w3.org/1999/xlink" x="0px" y="0px"
	 width="65px" height="65px" viewBox="0 0 65 65" enable-background="new 0 0 65 65" xml:space="preserve">
<g>
	<g>
		<rect x="10" y="61.338" fill="#2A5082" width="51" height="2"/>
	</g>
	<g>
		<polygon fill="#BCC0C4" points="53,32.338 51,32.338 51,30.7 46,24.7 46,22.338 48,22.338 48,23.977 53,29.977 		"/>
	</g>
	<g>
		<polygon fill="#BCC0C4" points="43,32.338 41,32.338 41,30.5 39,24.5 39,22.338 41,22.338 41,24.176 43,30.176 		"/>
	</g>
	<g>
		<polygon fill="#BCC0C4" points="23,32.338 21,32.338 21,29.977 26,23.977 26,22.338 28,22.338 28,24.7 23,30.7 		"/>
	</g>
	<g>
		<polygon fill="#BCC0C4" points="33,32.338 31,32.338 31,30.176 33,24.176 33,22.338 35,22.338 35,24.5 33,30.5 		"/>
	</g>
	<g>
		<path fill="#BCC0C4" d="M33,9.338h-7.513l-0.278-0.545c-0.377-0.738-1.264-1.486-2.229-1.486c-0.274,0-0.572,0.064-0.886,0.19
			l-0.95,0.382L20.785,6.92c-0.672-1.795-2.363-3-4.208-3c-2.456,0-4.496,2.927-4.499,4.42l-0.002,0.998H3v-2h7.21
			c0.608-2.441,3.232-5.418,6.366-5.418c2.369,0,4.556,1.355,5.695,3.452c1.857-0.339,3.521,0.753,4.385,1.966H33V9.338z"/>
	</g>
	<g>
		<rect y="16.338" fill="#BCC0C4" width="11" height="2"/>
	</g>
	<g>
		<path fill="#BCC0C4" d="M63,9.338h-4.686l-0.232-0.672c-0.463-1.337-1.273-1.807-2.783-1.625L54.645,7.12l-0.33-0.57
			c-0.578-0.996-1.649-1.59-2.869-1.59c-1.233,0-3.309,0.44-3.327,3.385l-0.009,0.994H42v-2h4.191
			c0.399-2.691,2.377-4.378,5.254-4.378c1.713,0,3.256,0.755,4.24,2.048c2.237-0.065,3.396,1.097,4.006,2.331H63V9.338z"/>
	</g>
	<g>
		<rect x="57" y="33.338" fill="#2A5082" width="2" height="29"/>
	</g>
	<g>
		<rect x="22" y="15.338" fill="#E9EAEB" width="30" height="7"/>
		<path fill="#2A5082" d="M53,23.338H21v-9h32V23.338z M23,21.338h28v-5H23V21.338z"/>
	</g>
	<g>
		<path fill="#E9EAEB" d="M12,32.338v6c0,2.594,2.41,5,5,5s5-2.406,5-5c0,2.594,2.41,5,5,5s5-2.406,5-5c0,2.594,2.41,5,5,5
			s5-2.406,5-5c0,2.594,2.41,5,5,5s5-2.406,5-5c0,2.594,2.41,5,5,5s5-2.406,5-5v-6H12z"/>
		<path fill="#2A5082" d="M57,44.338c-2.006,0-3.895-1.165-5-2.824c-1.105,1.659-2.996,2.824-5,2.824c-2.006,0-3.895-1.165-5-2.824
			c-1.105,1.659-2.996,2.824-5,2.824c-2.006,0-3.895-1.165-5-2.824c-1.105,1.659-2.996,2.824-5,2.824s-3.895-1.165-5-2.824
			c-1.105,1.659-2.996,2.824-5,2.824c-3.14,0-6-2.859-6-6v-7h52v7C63,41.479,60.141,44.338,57,44.338z M53,38.338
			c0,2.057,1.943,4,4,4c2.055,0,4-1.943,4-4v-5H13v5c0,2.057,1.944,4,4,4s4-1.943,4-4h2c0,2.057,1.944,4,4,4s4-1.943,4-4h2
			c0,2.057,1.943,4,4,4c2.055,0,4-1.943,4-4h2c0,2.057,1.943,4,4,4c2.055,0,4-1.943,4-4H53z"/>
	</g>
	<g>
		<path fill="#2A5082" d="M63,33.338H11v-3.857l10.662-8.143h30.676L63,29.481V33.338z M13,31.338h48V30.47l-9.338-7.132H22.338
			L13,30.47V31.338z"/>
	</g>
	<g>
		<rect x="21" y="36.338" fill="#2A5082" width="2" height="2"/>
	</g>
	<g>
		<rect x="31" y="36.338" fill="#2A5082" width="2" height="2"/>
	</g>
	<g>
		<rect x="41" y="36.338" fill="#2A5082" width="2" height="2"/>
	</g>
	<g>
		<rect x="51" y="36.338" fill="#2A5082" width="2" height="2"/>
	</g>
	<g>
		<rect x="4" y="61.338" fill="#2A5082" width="4" height="2"/>
	</g>
	<g>
		<path fill="#A3D4FF" d="M14.81,62.338c0.442-11.512,11.475-14.385,11.475-23.818c0-7.223-6.307-12.973-13.714-12.042
			C6.239,27.271,1.562,33.021,2.032,39.385c0.647,8.758,11.015,11.801,11.443,22.953H14.81z"/>
		<path fill="#2A5082" d="M15.772,63.338h-3.259l-0.037-0.962c-0.217-5.631-3.151-9.103-5.989-12.461
			c-2.521-2.981-5.128-6.067-5.452-10.457c-0.506-6.852,4.613-13.121,11.411-13.974c0.564-0.071,1.135-0.107,1.697-0.107
			c7.246,0,13.141,5.896,13.141,13.143c0,4.902-2.789,8.203-5.486,11.395c-2.838,3.357-5.772,6.831-5.989,12.462L15.772,63.338z
			 M14.143,27.377c-0.479,0-0.966,0.031-1.448,0.091c-5.758,0.723-10.094,6.035-9.666,11.843c0.277,3.741,2.564,6.447,4.986,9.312
			c2.452,2.902,5.18,6.129,6.127,10.845c0.948-4.716,3.675-7.942,6.128-10.846c2.69-3.185,5.014-5.933,5.014-10.104
			C25.284,32.376,20.286,27.377,14.143,27.377z"/>
	</g>
	<g>
		<ellipse fill="#FFFFFF" cx="14" cy="38.344" rx="4" ry="4.008"/>
		<path fill="#2A5082" d="M14,43.352c-2.757,0-5-2.246-5-5.008c0-2.76,2.243-5.006,5-5.006s5,2.246,5,5.006
			C19,41.105,16.757,43.352,14,43.352z M14,35.338c-1.654,0-3,1.35-3,3.006c0,1.658,1.346,3.008,3,3.008s3-1.35,3-3.008
			C17,36.688,15.654,35.338,14,35.338z"/>
	</g>
	<g>
		<rect y="61.338" fill="#2A5082" width="2" height="2"/>
	</g>
	<g>
		<rect x="43" y="48.338" fill="#E9EAEB" width="10" height="14"/>
		<path fill="#2A5082" d="M54,63.338H42v-16h12V63.338z M44,61.338h8v-12h-8V61.338z"/>
	</g>
	<g>
		<rect x="27" y="48.338" fill="#FFFFFF" width="12" height="9"/>
		<path fill="#2A5082" d="M40,58.338H26v-11h14V58.338z M28,56.338h10v-7H28V56.338z"/>
	</g>
	<g>
		<rect x="13" y="16.338" fill="#BCC0C4" width="2" height="2"/>
	</g>
	<g>
		<rect x="35" y="7.338" fill="#BCC0C4" width="2" height="2"/>
	</g>
	<g>
		<rect x="62" y="61.338" fill="#2A5082" width="2" height="2"/>
	</g>
</g>
</svg>
