<?xml version="1.0" encoding="utf-8"?>
<!-- Generator: Adobe Illustrator 15.0.0, SVG Export Plug-In . SVG Version: 6.00 Build 0)  -->
<!DOCTYPE svg PUBLIC "-//W3C//DTD SVG 1.1//EN" "http://www.w3.org/Graphics/SVG/1.1/DTD/svg11.dtd">
<svg version="1.1" id="Layer_1" xmlns="http://www.w3.org/2000/svg" xmlns:xlink="http://www.w3.org/1999/xlink" x="0px" y="0px"
	 width="65px" height="65px" viewBox="0 0 65 65" enable-background="new 0 0 65 65" xml:space="preserve">
<g>
	<g>
		<path fill="#2A5082" d="M44.5,61.547h-28v-41h28V61.547z M18.5,59.547h24v-37h-24V59.547z"/>
	</g>
	<g>
		<rect x="20.5" y="16.547" fill="#E9EAEB" width="20" height="5"/>
		<path fill="#2A5082" d="M41.5,22.547h-22v-7h22V22.547z M21.5,20.547h18v-3h-18V20.547z"/>
	</g>
	<g>
		<rect x="28.5" y="52.547" fill="#E9EAEB" width="6" height="8"/>
		<path fill="#2A5082" d="M35.5,61.547h-8v-10h8V61.547z M29.5,59.547h4v-6h-4V59.547z"/>
	</g>
	<g>
		<polygon fill="#2A5082" points="28.5,35.547 26.5,35.547 26.5,31.547 23.5,31.547 23.5,35.547 21.5,35.547 21.5,29.547 
			28.5,29.547 		"/>
	</g>
	<g>
		<polygon fill="#2A5082" points="28.5,43.547 26.5,43.547 26.5,39.547 23.5,39.547 23.5,43.547 21.5,43.547 21.5,37.547 
			28.5,37.547 		"/>
	</g>
	<g>
		<path fill="#2A5082" d="M18.5,61.547h-12v-27h12V61.547z M8.5,59.547h8v-23h-8V59.547z"/>
	</g>
	<g>
		<rect x="10.5" y="30.547" fill="#E9EAEB" width="7" height="5"/>
		<path fill="#2A5082" d="M18.5,36.547h-9v-7h9V36.547z M11.5,34.547h5v-3h-5V34.547z"/>
	</g>
	<g>
		<path fill="#A3D4FF" d="M43.573,28.547c-6.034,0-10.927,4.893-10.927,10.927c0,9.43,9.318,10.705,10.102,20.293
			c0.035,0.436,0.387,0.779,0.825,0.779s0.79-0.344,0.825-0.779C45.182,50.18,54.5,48.904,54.5,39.475
			C54.5,33.44,49.607,28.547,43.573,28.547z"/>
		<path fill="#2A5082" d="M43.573,61.547c-0.961,0-1.744-0.73-1.822-1.699c-0.356-4.361-2.586-6.837-4.947-9.458
			c-2.535-2.813-5.157-5.724-5.157-10.915c0-6.577,5.351-11.927,11.927-11.927S55.5,32.898,55.5,39.475
			c0,5.191-2.622,8.102-5.157,10.915c-2.361,2.621-4.591,5.097-4.947,9.459C45.317,60.816,44.534,61.547,43.573,61.547z
			 M43.573,29.547c-5.474,0-9.927,4.454-9.927,9.927c0,4.423,2.255,6.927,4.643,9.576c2.247,2.493,4.562,5.064,5.284,9.271
			c0.722-4.207,3.037-6.777,5.284-9.271c2.388-2.649,4.643-5.153,4.643-9.576C53.5,34.001,49.047,29.547,43.573,29.547z"/>
	</g>
	<g>
		<circle fill="#FFFFFF" cx="43.5" cy="39.547" r="4"/>
		<path fill="#2A5082" d="M43.5,44.547c-2.757,0-5-2.243-5-5s2.243-5,5-5s5,2.243,5,5S46.257,44.547,43.5,44.547z M43.5,36.547
			c-1.654,0-3,1.346-3,3s1.346,3,3,3s3-1.346,3-3S45.154,36.547,43.5,36.547z"/>
	</g>
	<g>
		<rect x="4.5" y="59.547" fill="#2A5082" width="50" height="2"/>
	</g>
	<g>
		<path fill="#BCC0C4" d="M36.5,10.547h-7.513l-0.278-0.544c-0.378-0.739-1.265-1.486-2.229-1.486c-0.275,0-0.572,0.064-0.885,0.19
			l-0.95,0.382L24.285,8.13c-0.674-1.794-2.365-3-4.209-3c-2.455,0-4.495,2.927-4.499,4.421l-0.003,0.997H6.5v-2h7.21
			c0.609-2.441,3.233-5.418,6.366-5.418c2.368,0,4.556,1.355,5.695,3.452c1.87-0.339,3.518,0.728,4.389,1.966h6.34V10.547z"/>
	</g>
	<g>
		<rect x="4.5" y="16.547" fill="#BCC0C4" width="7" height="2"/>
	</g>
	<g>
		<path fill="#BCC0C4" d="M64.5,15.547h-3.686l-0.233-0.673c-0.463-1.337-1.272-1.807-2.782-1.625l-0.654,0.079l-0.331-0.57
			c-0.578-0.996-1.65-1.59-2.868-1.59c-1.234,0-3.309,0.44-3.33,3.386l-0.007,0.993H45.5v-2h3.19
			c0.402-2.691,2.38-4.378,5.255-4.378c1.714,0,3.255,0.755,4.239,2.048c2.202-0.057,3.397,1.096,4.007,2.331H64.5V15.547z"/>
	</g>
	<g>
		<rect x="13.5" y="16.547" fill="#BCC0C4" width="2" height="2"/>
	</g>
	<g>
		<rect x="38.5" y="8.547" fill="#BCC0C4" width="2" height="2"/>
	</g>
	<g>
		<rect x="42.5" y="8.547" fill="#BCC0C4" width="2" height="2"/>
	</g>
	<g>
		<rect x="0.5" y="59.547" fill="#2A5082" width="2" height="2"/>
	</g>
	<g>
		<rect x="56.5" y="59.547" fill="#2A5082" width="4" height="2"/>
	</g>
	<g>
		<rect x="62.5" y="59.547" fill="#2A5082" width="2" height="2"/>
	</g>
</g>
</svg>
