<?xml version="1.0" encoding="utf-8"?>
<!-- Generator: Adobe Illustrator 15.0.0, SVG Export Plug-In . SVG Version: 6.00 Build 0)  -->
<!DOCTYPE svg PUBLIC "-//W3C//DTD SVG 1.1//EN" "http://www.w3.org/Graphics/SVG/1.1/DTD/svg11.dtd">
<svg version="1.1" id="Layer_1" xmlns="http://www.w3.org/2000/svg" xmlns:xlink="http://www.w3.org/1999/xlink" x="0px" y="0px"
	 width="65px" height="65px" viewBox="0 0 65 65" enable-background="new 0 0 65 65" xml:space="preserve">
<g>
	<g>
		<circle fill="#E9EAEB" cx="32.264" cy="32.158" r="20.5"/>
	</g>
	<g>
		<polygon fill="#FFFFFF" points="42.764,13.658 30.764,22.658 30.764,39.658 42.764,48.658 45.764,48.658 45.764,13.658 		"/>
	</g>
	<g>
		<path fill="#A3D4FF" d="M30.764,22.658h-20c-2.762,0-5,2.239-5,5v7c0,2.762,2.238,5,5,5h20V22.658z"/>
	</g>
	<g>
		<rect x="9.764" y="25.658" fill="#2A5082" width="18" height="2"/>
	</g>
	<g>
		<polygon fill="#2A5082" points="27.764,45.658 22.764,45.658 22.764,43.658 25.764,43.658 25.764,40.658 27.764,40.658 		"/>
	</g>
	<g>
		<polygon fill="#FFFFFF" points="20.764,41.658 20.764,39.658 13.764,39.658 13.764,41.874 16.764,48.658 16.764,50.658 
			23.764,50.658 23.764,48.658 		"/>
	</g>
	<g>
		<polygon fill="#2A5082" points="24.764,51.658 15.764,51.658 15.764,48.869 12.764,42.085 12.764,39.658 14.764,39.658 
			14.764,41.663 17.764,48.447 17.764,49.658 22.764,49.658 22.764,48.863 19.764,41.863 19.764,39.658 21.764,39.658 
			21.764,41.453 24.764,48.453 		"/>
	</g>
	<g>
		<path fill="#A3D4FF" d="M44.764,25.957v10.31c3,0,4.93-2.308,4.93-5.154C49.693,28.265,47.764,25.957,44.764,25.957z"/>
	</g>
	<g>
		<path fill="#2A5082" d="M44.836,37.268v-2c2.166,0,3.928-1.864,3.928-4.155s-1.762-4.155-3.928-4.155v-2
			c3.269,0,5.928,2.761,5.928,6.155C50.764,34.506,48.104,37.268,44.836,37.268z"/>
	</g>
	<g>
		<path fill="#2A5082" d="M46.764,49.658h-1.332c-1.935,0-3.853-0.639-5.4-1.8l-9.601-7.2H10.764c-3.309,0-6-2.691-6-6v-7
			c0-3.309,2.691-6,6-6h19.667l9.601-7.2c1.547-1.161,3.466-1.8,5.4-1.8h1.332V49.658z M10.764,23.658c-2.206,0-4,1.794-4,4v7
			c0,2.206,1.794,4,4,4h20.333l10.133,7.601c1.025,0.769,2.26,1.243,3.533,1.367V14.691c-1.273,0.124-2.508,0.599-3.533,1.367
			l-10.133,7.6H10.764z"/>
	</g>
	<g>
		<rect x="29.764" y="22.658" fill="#2A5082" width="2" height="17"/>
	</g>
	<g>
		<path fill="#2A5082" d="M56.149,50.177l-1.525-1.293c3.959-4.676,6.14-10.627,6.14-16.757c0-6.283-2.279-12.348-6.419-17.078
			l1.506-1.317c4.458,5.094,6.913,11.627,6.913,18.395C62.764,38.729,60.415,45.14,56.149,50.177z"/>
	</g>
	<g>
		<path fill="#2A5082" d="M52.531,45.973l-1.656-1.121c2.544-3.758,3.889-8.152,3.889-12.709c0-5.298-1.867-10.457-5.259-14.525
			l1.537-1.28c3.689,4.427,5.722,10.04,5.722,15.805C56.764,37.101,55.3,41.883,52.531,45.973z"/>
	</g>
	<g>
		<path fill="#BCC0C4" d="M7.951,17.49l-1.717-1.025C11.688,7.332,21.676,1.658,32.301,1.658c5.246,0,10.417,1.361,14.956,3.936
			l-0.986,1.739c-4.238-2.404-9.069-3.675-13.969-3.675C22.376,3.658,13.045,8.958,7.951,17.49z"/>
	</g>
	<g>
		<path fill="#BCC0C4" d="M32.301,62.342c-11.298,0-21.59-6.214-26.86-16.218l1.77-0.932c4.923,9.345,14.537,15.149,25.091,15.149
			c4.586,0,8.961-1.061,13.002-3.151l0.92,1.775C41.955,61.175,37.142,62.342,32.301,62.342z"/>
	</g>
	<g>
		<path fill="#2A5082" d="M6.764,36.658h-6v-11h6V36.658z M2.764,34.658h2v-7h-2V34.658z"/>
	</g>
</g>
</svg>
