<?xml version="1.0" encoding="utf-8"?>
<!-- Generator: Adobe Illustrator 15.0.0, SVG Export Plug-In . SVG Version: 6.00 Build 0)  -->
<!DOCTYPE svg PUBLIC "-//W3C//DTD SVG 1.1//EN" "http://www.w3.org/Graphics/SVG/1.1/DTD/svg11.dtd">
<svg version="1.1" id="Layer_1" xmlns="http://www.w3.org/2000/svg" xmlns:xlink="http://www.w3.org/1999/xlink" x="0px" y="0px"
	 width="165px" height="35px" viewBox="0 0 165 35" enable-background="new 0 0 165 35" xml:space="preserve">
<g>
	<circle fill="#004DDA" cx="26.667" cy="17" r="5.333"/>
	<path fill="#004DDA" d="M41.751,11.667h-3.842c0.77,1.618,1.202,3.426,1.202,5.333c0,6.862-5.583,12.445-12.445,12.445H3.556L0,33
		h26.667c8.823,0,16-7.178,16-16C42.667,15.131,42.343,13.336,41.751,11.667z"/>
	<path fill="#004DDA" d="M35.901,11.667h-4.534c1.478,1.303,2.41,3.209,2.41,5.333c0,3.927-3.183,7.11-7.111,7.11H8.889
		l-3.555,3.556h21.333c5.882,0,10.667-4.783,10.667-10.666C37.333,15.059,36.812,13.237,35.901,11.667z"/>
	<path fill="#004DDA" d="M11.582,22.334h3.843c-0.771-1.618-1.202-3.427-1.202-5.334c0-6.862,5.582-12.445,12.444-12.445h23.111
		L53.333,1H26.667c-8.822,0-16,7.178-16,16C10.667,18.869,10.99,20.664,11.582,22.334z"/>
	<path fill="#004DDA" d="M17.432,22.334h4.534c-1.477-1.304-2.41-3.209-2.41-5.334c0-3.927,3.184-7.111,7.111-7.111h17.778L48,6.333
		H26.667C20.785,6.333,16,11.118,16,17C16,18.941,16.522,20.764,17.432,22.334z"/>
</g>
<g>
	<path fill="#444444" d="M70.524,11.842c-0.364-0.589-0.85-1.018-1.456-1.287c-0.607-0.269-1.239-0.403-1.898-0.403
		c-0.485,0-0.962,0.061-1.43,0.182c-0.468,0.122-0.889,0.304-1.261,0.546c-0.373,0.243-0.672,0.563-0.897,0.962
		c-0.226,0.399-0.338,0.867-0.338,1.404c0,0.416,0.065,0.784,0.195,1.105s0.342,0.611,0.637,0.871
		c0.294,0.26,0.693,0.503,1.196,0.728c0.502,0.225,1.118,0.451,1.846,0.676c0.71,0.226,1.399,0.468,2.067,0.728
		c0.667,0.26,1.256,0.589,1.768,0.988c0.511,0.398,0.918,0.896,1.222,1.495s0.455,1.349,0.455,2.249
		c0,0.919-0.182,1.716-0.546,2.393c-0.364,0.676-0.845,1.234-1.443,1.676c-0.598,0.443-1.287,0.771-2.067,0.988
		c-0.78,0.217-1.586,0.325-2.418,0.325c-0.537,0-1.075-0.048-1.612-0.143c-0.538-0.096-1.053-0.243-1.547-0.442
		s-0.958-0.459-1.391-0.779c-0.434-0.321-0.806-0.715-1.118-1.184l1.872-1.533c0.398,0.676,0.953,1.187,1.664,1.533
		c0.71,0.348,1.465,0.52,2.262,0.52c0.468,0,0.94-0.068,1.417-0.207c0.477-0.139,0.905-0.342,1.287-0.611
		c0.381-0.269,0.693-0.602,0.936-1.001c0.243-0.398,0.364-0.858,0.364-1.378c0-0.572-0.096-1.035-0.286-1.391
		c-0.191-0.355-0.485-0.664-0.884-0.924c-0.399-0.26-0.901-0.494-1.508-0.701c-0.607-0.209-1.317-0.451-2.132-0.729
		c-0.659-0.208-1.266-0.446-1.82-0.715c-0.555-0.269-1.036-0.598-1.443-0.988s-0.728-0.858-0.962-1.404s-0.351-1.2-0.351-1.963
		c0-0.884,0.173-1.655,0.52-2.314c0.347-0.658,0.815-1.209,1.404-1.651c0.589-0.442,1.256-0.775,2.002-1.001
		c0.745-0.225,1.525-0.338,2.34-0.338c1.04,0,1.989,0.161,2.847,0.481c0.858,0.321,1.625,0.88,2.301,1.677L70.524,11.842z"/>
	<path fill="#444444" d="M75.594,8.592h5.46c0.849,0,1.66,0.083,2.431,0.247c0.771,0.165,1.456,0.442,2.054,0.832
		s1.074,0.91,1.43,1.56s0.533,1.452,0.533,2.405c0,1.005-0.191,1.837-0.572,2.496c-0.381,0.659-0.871,1.179-1.469,1.56
		c-0.598,0.381-1.252,0.65-1.963,0.806s-1.387,0.234-2.028,0.234h-3.692V27h-2.184V8.592z M77.778,16.704h3.692
		c1.092,0,1.98-0.247,2.665-0.741c0.686-0.494,1.027-1.261,1.027-2.301s-0.342-1.807-1.027-2.301
		c-0.685-0.494-1.573-0.741-2.665-0.741h-3.692V16.704z"/>
	<path fill="#444444" d="M94.418,8.592h2.054L104.298,27h-2.548l-1.872-4.523h-9.204L88.775,27h-2.47L94.418,8.592z M95.406,11.4
		h-0.053l-3.822,9.048h7.515L95.406,11.4z"/>
	<path fill="#444444" d="M106.092,8.592h4.706c0.884,0,1.763,0.052,2.639,0.156s1.659,0.33,2.353,0.676
		c0.693,0.347,1.258,0.854,1.69,1.521c0.433,0.667,0.65,1.573,0.65,2.717c0,1.352-0.407,2.444-1.222,3.276
		c-0.815,0.832-1.941,1.361-3.381,1.585L118.754,27h-2.678l-4.992-8.268h-2.809V27h-2.184V8.592z M108.275,16.704h1.95
		c0.606,0,1.235-0.017,1.886-0.052c0.649-0.034,1.248-0.147,1.793-0.338c0.547-0.19,0.997-0.489,1.353-0.897
		c0.354-0.407,0.532-0.992,0.532-1.755c0-0.659-0.129-1.187-0.389-1.586c-0.261-0.399-0.604-0.706-1.027-0.923
		c-0.426-0.216-0.902-0.359-1.43-0.429c-0.529-0.069-1.062-0.104-1.6-0.104h-3.068V16.704z"/>
	<path fill="#444444" d="M121.328,8.592h2.184v7.956h0.312l8.371-7.956h3.146l-9.1,8.398L135.783,27h-3.197l-8.762-9.36h-0.312V27
		h-2.184V8.592z"/>
	<path fill="#444444" d="M137.058,8.592h11.57v2.028h-9.387v5.772h8.763v2.028h-8.763v6.553h9.854V27h-12.038V8.592z"/>
	<path fill="#444444" d="M151.825,8.592h4.706c0.884,0,1.764,0.052,2.639,0.156s1.66,0.33,2.354,0.676
		c0.692,0.347,1.256,0.854,1.689,1.521c0.434,0.667,0.65,1.573,0.65,2.717c0,1.352-0.407,2.444-1.223,3.276
		c-0.814,0.832-1.941,1.361-3.38,1.585L164.487,27h-2.678l-4.992-8.268h-2.809V27h-2.184V8.592z M154.009,16.704h1.95
		c0.606,0,1.235-0.017,1.885-0.052c0.65-0.034,1.248-0.147,1.794-0.338c0.547-0.19,0.997-0.489,1.353-0.897
		c0.354-0.407,0.533-0.992,0.533-1.755c0-0.659-0.13-1.187-0.391-1.586c-0.26-0.399-0.603-0.706-1.026-0.923
		c-0.425-0.216-0.901-0.359-1.431-0.429c-0.528-0.069-1.062-0.104-1.599-0.104h-3.068V16.704z"/>
</g>
</svg>
