<?xml version="1.0" encoding="utf-8"?>
<!-- Generator: Adobe Illustrator 15.0.0, SVG Export Plug-In . SVG Version: 6.00 Build 0)  -->
<!DOCTYPE svg PUBLIC "-//W3C//DTD SVG 1.1//EN" "http://www.w3.org/Graphics/SVG/1.1/DTD/svg11.dtd">
<svg version="1.1" id="Layer_1" xmlns="http://www.w3.org/2000/svg" xmlns:xlink="http://www.w3.org/1999/xlink" x="0px" y="0px"
	 width="480px" height="359.318px" viewBox="0 0 480 359.318" enable-background="new 0 0 480 359.318" xml:space="preserve">
<g>
	<g>
		<g>
			<path fill="#004DDA" d="M56.195,95.678c-1.03,0-1.863-0.835-1.863-1.865l0,0c0-1.029,0.833-1.864,1.863-1.864l0,0h14.908
				c1.028,0,1.863,0.835,1.863,1.864l0,0c0,1.03-0.835,1.865-1.863,1.865l0,0H56.195L56.195,95.678z"/>
			<path fill="#004DDA" d="M61.785,101.268V86.36c0-1.028,0.834-1.863,1.864-1.863l0,0c1.029,0,1.863,0.835,1.863,1.863l0,0v14.908
				c0,1.028-0.834,1.865-1.863,1.865l0,0C62.619,103.132,61.785,102.296,61.785,101.268L61.785,101.268z"/>
		</g>
		<g>
			<path fill="#004DDA" d="M369.841,283.478c-1.03,0-1.865-0.835-1.865-1.863l0,0c0-1.03,0.835-1.864,1.865-1.864l0,0h14.907
				c1.027,0,1.863,0.834,1.863,1.864l0,0c0,1.028-0.836,1.863-1.863,1.863l0,0H369.841L369.841,283.478z"/>
			<path fill="#004DDA" d="M375.43,289.069v-14.908c0-1.029,0.835-1.864,1.865-1.864l0,0c1.027,0,1.862,0.835,1.862,1.864l0,0
				v14.908c0,1.027-0.835,1.863-1.862,1.863l0,0C376.265,290.932,375.43,290.096,375.43,289.069L375.43,289.069z"/>
		</g>
		<g>
			<path fill="#004DDA" d="M269.162,11.182c-1.028,0-1.862-0.833-1.862-1.863l0,0c0-1.029,0.834-1.863,1.862-1.863l0,0h14.909
				c1.028,0,1.863,0.834,1.863,1.863l0,0c0,1.03-0.835,1.863-1.863,1.863l0,0H269.162L269.162,11.182z"/>
			<path fill="#004DDA" d="M274.753,16.772V1.864c0-1.029,0.834-1.864,1.864-1.864l0,0c1.028,0,1.864,0.835,1.864,1.864l0,0v14.908
				c0,1.029-0.836,1.864-1.864,1.864l0,0C275.587,18.636,274.753,17.801,274.753,16.772L274.753,16.772z"/>
		</g>
		<path fill="#004DDA" d="M406.365,158.673c0.001-5.146,4.172-9.316,9.318-9.318l0,0c5.145,0.001,9.315,4.171,9.315,9.318l0,0
			c0,5.145-4.171,9.316-9.315,9.317l0,0C410.537,167.989,406.367,163.82,406.365,158.673L406.365,158.673z M410.092,158.673
			c0.006,3.086,2.505,5.583,5.592,5.59l0,0c3.086-0.007,5.583-2.504,5.588-5.59l0,0c-0.005-3.086-2.502-5.585-5.588-5.59l0,0
			C412.597,153.087,410.098,155.587,410.092,158.673L410.092,158.673z"/>
		<path fill="#004DDA" d="M171.806,37.864c0.002-4.117,3.336-7.453,7.454-7.455l0,0c4.117,0.001,7.453,3.337,7.455,7.455l0,0
			c-0.002,4.118-3.338,7.452-7.455,7.454l0,0C175.142,45.316,171.808,41.982,171.806,37.864L171.806,37.864z M175.533,37.864
			c0.003,2.057,1.67,3.723,3.727,3.726l0,0c2.056-0.003,3.723-1.669,3.728-3.726l0,0c-0.005-2.056-1.671-3.722-3.728-3.727l0,0
			C177.203,34.142,175.537,35.808,175.533,37.864L175.533,37.864z"/>
		<path fill="#004DDA" d="M83.373,329.048c0.001-5.147,4.17-9.316,9.318-9.316l0,0c5.146,0,9.315,4.169,9.317,9.316l0,0
			c-0.002,5.145-4.171,9.315-9.317,9.317l0,0C87.542,338.364,83.374,334.195,83.373,329.048L83.373,329.048z M87.1,329.048
			c0.004,3.085,2.502,5.585,5.59,5.591l0,0c3.086-0.006,5.583-2.506,5.59-5.591l0,0c-0.006-3.089-2.503-5.585-5.59-5.59l0,0
			C89.603,323.463,87.104,325.961,87.1,329.048L87.1,329.048z"/>
		<g>
			<path fill="#004DDA" d="M7.096,281.464c-1.03,0-1.864-0.836-1.864-1.863l0,0c0-1.03,0.834-1.864,1.864-1.864l0,0h42.487
				c1.03,0,1.864,0.834,1.864,1.864l0,0c0,1.027-0.834,1.863-1.864,1.863l0,0H7.096L7.096,281.464z"/>
			<path fill="#004DDA" d="M33.185,289.663c-1.03,0-1.863-0.834-1.863-1.863l0,0c0-1.029,0.833-1.863,1.863-1.863l0,0H58.9
				c1.029,0,1.865,0.834,1.865,1.863l0,0c0,1.029-0.836,1.863-1.865,1.863l0,0H33.185L33.185,289.663z"/>
		</g>
		<path fill="#004DDA" d="M81.46,13.559c-1.028,0-1.864-0.834-1.864-1.863l0,0c0-1.031,0.835-1.864,1.864-1.864l0,0h16.747
			c1.029,0,1.864,0.833,1.864,1.864l0,0c0,1.029-0.835,1.863-1.864,1.863l0,0H81.46L81.46,13.559z"/>
		<path fill="#004DDA" d="M425.405,101.486c-1.029,0-1.864-0.835-1.864-1.862l0,0c0-1.03,0.835-1.864,1.864-1.864l0,0h16.747
			c1.027,0,1.861,0.834,1.861,1.864l0,0c0,1.027-0.834,1.862-1.861,1.862l0,0H425.405L425.405,101.486z"/>
		<path fill="#004DDA" d="M97.918,211.843c-1.029,0-1.863-0.836-1.863-1.864l0,0c0-1.028,0.834-1.864,1.863-1.864l0,0h16.746
			c1.029,0,1.865,0.836,1.865,1.864l0,0c0,1.028-0.836,1.864-1.865,1.864l0,0H97.918L97.918,211.843z"/>
		<path fill="#004DDA" d="M413.788,341.559c-1.028,0-1.862-0.835-1.862-1.863l0,0c0-1.029,0.834-1.864,1.862-1.864l0,0h16.748
			c1.027,0,1.863,0.835,1.863,1.864l0,0c0,1.028-0.836,1.863-1.863,1.863l0,0H413.788L413.788,341.559z"/>
		<g>
			<path fill="#004DDA" d="M468.581,230.236c-1.028,0-1.862-0.837-1.862-1.865l0,0c0-1.028,0.834-1.862,1.862-1.862l0,0h6.708
				c1.029,0,1.864,0.834,1.864,1.862l0,0c0,1.028-0.835,1.865-1.864,1.865l0,0H468.581L468.581,230.236z"/>
			<path fill="#004DDA" d="M409.695,230.236c-1.03,0-1.863-0.836-1.863-1.864l0,0c0-1.029,0.833-1.864,1.863-1.864l0,0h48.45
				c1.029,0,1.864,0.835,1.864,1.864l0,0c0,1.028-0.835,1.864-1.864,1.864l0,0H409.695L409.695,230.236z"/>
		</g>
		<g>
			<path fill="#004DDA" d="M327.305,46.796c-1.029,0-1.863-0.834-1.863-1.864l0,0c0-1.029,0.834-1.862,1.863-1.862l0,0h51.433
				c1.028,0,1.863,0.833,1.863,1.862l0,0c0,1.03-0.835,1.864-1.863,1.864l0,0H327.305L327.305,46.796z"/>
			<path fill="#004DDA" d="M388.427,46.796c-1.029,0-1.863-0.834-1.863-1.864l0,0c0-1.029,0.834-1.862,1.863-1.862l0,0h6.709
				c1.028,0,1.862,0.833,1.862,1.862l0,0c0,1.03-0.834,1.864-1.862,1.864l0,0H388.427L388.427,46.796z"/>
		</g>
		<g>
			<path fill="#004DDA" d="M21.109,157.633c-1.03,0-1.864-0.837-1.864-1.865l0,0c0-1.029,0.834-1.863,1.864-1.863l0,0h51.431
				c1.029,0,1.863,0.834,1.863,1.863l0,0c0,1.028-0.834,1.865-1.863,1.865l0,0H21.109L21.109,157.633z"/>
			<path fill="#004DDA" d="M4.711,157.633c-1.031,0-1.865-0.837-1.865-1.865l0,0c0-1.029,0.834-1.863,1.865-1.863l0,0h6.707
				c1.03,0,1.865,0.834,1.865,1.863l0,0c0,1.028-0.835,1.865-1.865,1.865l0,0H4.711L4.711,157.633z"/>
		</g>
	</g>
	<g>
		<path fill="#004DDA" d="M143.471,359.318c-0.498,0-0.965-0.192-1.317-0.545l0,0c-0.354-0.353-0.547-0.82-0.547-1.318l0,0V61.534
			c0-0.489,0.2-0.97,0.547-1.317l0,0c0.347-0.347,0.826-0.546,1.317-0.546l0,0h193.056c0.497,0,0.967,0.194,1.318,0.546l0,0
			c0.352,0.352,0.545,0.819,0.545,1.317l0,0v295.92c0,0.498-0.193,0.966-0.545,1.318l0,0c-0.354,0.351-0.821,0.545-1.318,0.545l0,0
			H143.471L143.471,359.318z M336.527,357.455v-1.863V357.455L336.527,357.455z M145.335,355.591h189.329V63.398H145.335V355.591
			L145.335,355.591z"/>
		<g>
			<g>
				<path fill="#004DDA" d="M178.475,327.265c-2.068-0.002-3.747-1.675-3.747-3.746l0,0v-18.595c0.005-2.071,1.68-3.742,3.747-3.747
					l0,0l41.899,0.001c2.064,0,3.746,1.672,3.748,3.746l0,0v18.595h-0.002c0,2.072-1.678,3.746-3.746,3.749l0,0L178.475,327.265
					L178.475,327.265z M178.457,304.924l-0.002,18.595c0.002,0.014,0.009,0.021,0.021,0.021l0,0h41.899
					c0.009,0,0.019-0.008,0.019-0.021l0,0v-18.595c0-0.012-0.008-0.02-0.019-0.02l0,0l-41.899-0.001
					C178.461,304.905,178.457,304.91,178.457,304.924L178.457,304.924z"/>
				<g>
					<path fill="#004DDA" d="M194.153,319.493c-0.727-0.728-0.727-1.907,0-2.636l0,0l7.907-7.906c0.728-0.728,1.907-0.728,2.636,0
						l0,0c0.727,0.728,0.727,1.907,0,2.635l0,0l-7.908,7.907c-0.364,0.363-0.84,0.546-1.317,0.546l0,0
						C194.995,320.039,194.518,319.856,194.153,319.493L194.153,319.493z"/>
					<path fill="#004DDA" d="M202.061,319.493l-7.907-7.907c-0.727-0.728-0.727-1.907,0-2.635l0,0c0.729-0.728,1.908-0.728,2.635,0
						l0,0l7.908,7.906c0.727,0.729,0.727,1.908,0,2.636l0,0c-0.364,0.363-0.841,0.546-1.318,0.546l0,0
						C202.901,320.039,202.424,319.856,202.061,319.493L202.061,319.493z"/>
				</g>
			</g>
			<g>
				<path fill="#004DDA" d="M259.624,327.265c-2.069-0.002-3.743-1.675-3.748-3.746l0,0v-18.595
					c0.005-2.071,1.683-3.742,3.748-3.747l0,0l41.9,0.001c2.063,0,3.743,1.67,3.747,3.746l0,0v18.595h-0.002
					c-0.002,2.073-1.681,3.746-3.745,3.749l0,0L259.624,327.265L259.624,327.265z M259.604,304.924l-0.002,18.595
					c0.002,0.014,0.009,0.021,0.021,0.021l0,0h41.9c0.009,0,0.019-0.012,0.02-0.021l0,0h-0.001l0.001-18.595
					c-0.001-0.01-0.009-0.02-0.02-0.02l0,0l-41.9-0.001C259.607,304.905,259.604,304.91,259.604,304.924L259.604,304.924z"/>
				<g>
					<path fill="#004DDA" d="M277.07,320.292l-5.134-5.134c-0.728-0.727-0.728-1.907,0-2.636l0,0c0.729-0.728,1.908-0.728,2.637,0
						l0,0l5.133,5.134c0.728,0.729,0.728,1.908,0,2.636l0,0c-0.363,0.364-0.841,0.546-1.318,0.546l0,0
						C277.912,320.837,277.434,320.656,277.07,320.292L277.07,320.292z"/>
					<path fill="#004DDA" d="M277.07,320.292c-0.728-0.728-0.728-1.907,0-2.636l0,0l9.504-9.504c0.729-0.727,1.907-0.727,2.636,0
						l0,0c0.727,0.729,0.727,1.908,0,2.636l0,0l-9.504,9.504c-0.363,0.364-0.841,0.546-1.318,0.546l0,0
						C277.912,320.837,277.434,320.656,277.07,320.292L277.07,320.292z"/>
				</g>
			</g>
		</g>
		<g>
			<g>
				<path fill="#004DDA" d="M191.781,267.922c0.002-2.472,2.002-4.472,4.473-4.473l0,0c2.471,0.001,4.471,2.001,4.473,4.473l0,0
					c-0.002,2.471-2.002,4.47-4.473,4.47l0,0C193.783,272.392,191.784,270.393,191.781,267.922L191.781,267.922z M196.254,267.922
					v-0.003V267.922L196.254,267.922z"/>
				<path fill="#004DDA" d="M209.279,267.922c0.001-2.472,2.002-4.472,4.473-4.473l0,0c2.472,0,4.472,2.003,4.472,4.473l0,0
					c0,2.469-2,4.47-4.472,4.47l0,0C211.281,272.392,209.281,270.393,209.279,267.922L209.279,267.922z M213.752,267.922v-0.003
					V267.922L213.752,267.922z"/>
				<path fill="#004DDA" d="M226.779,267.922c0.001-2.472,2-4.472,4.47-4.475l0,0c2.472,0.003,4.471,2.003,4.473,4.475l0,0
					c-0.002,2.469-2,4.47-4.473,4.47l0,0C228.779,272.392,226.78,270.391,226.779,267.922L226.779,267.922z M231.249,267.922
					c0,0,0,0,0-0.003l0,0V267.922L231.249,267.922z"/>
				<path fill="#004DDA" d="M244.274,267.922c0.002-2.472,2.002-4.472,4.473-4.473l0,0c2.471,0.001,4.471,2.001,4.473,4.473l0,0
					c-0.002,2.471-2.002,4.47-4.473,4.47l0,0C246.276,272.392,244.276,270.393,244.274,267.922L244.274,267.922z M248.747,267.922
					v-0.003V267.922L248.747,267.922z"/>
				<path fill="#004DDA" d="M261.774,267.922c0.001-2.472,2.002-4.472,4.472-4.473l0,0c2.472,0,4.472,2.003,4.473,4.473l0,0
					c-0.001,2.469-2.001,4.47-4.473,4.47l0,0C263.776,272.392,261.775,270.393,261.774,267.922L261.774,267.922z M266.246,267.922
					v-0.003V267.922L266.246,267.922z"/>
				<path fill="#004DDA" d="M279.272,267.922c0.001-2.472,2.001-4.472,4.472-4.473l0,0c2.471,0.001,4.471,2.001,4.473,4.473l0,0
					c-0.002,2.471-2.002,4.47-4.473,4.47l0,0C281.273,272.392,279.273,270.393,279.272,267.922L279.272,267.922z M283.744,267.922
					v-0.003V267.922L283.744,267.922z"/>
			</g>
			<path fill="#004DDA" d="M179.249,283.947c-0.498,0-0.964-0.193-1.316-0.546l0,0c-0.352-0.353-0.545-0.82-0.545-1.316l0,0V253.76
				c0-0.493,0.198-0.972,0.545-1.318l0,0c0.346-0.348,0.826-0.547,1.316-0.547l0,0h121.5c0.498,0,0.966,0.193,1.316,0.547l0,0
				c0.354,0.351,0.547,0.819,0.547,1.318l0,0v28.324c0,0.496-0.194,0.964-0.547,1.316l0,0c-0.352,0.353-0.818,0.546-1.316,0.546l0,0
				H179.249L179.249,283.947z M300.749,282.084v-1.864V282.084L300.749,282.084z M181.112,280.22h117.772v-24.599H181.112V280.22
				L181.112,280.22z"/>
		</g>
		<g>
			<path fill="#004DDA" d="M198.258,223.856c-1.236,0-2.236-1.002-2.236-2.236l0,0c0-1.235,1-2.236,2.236-2.236l0,0h83.484
				c1.234,0,2.236,1.001,2.236,2.236l0,0c0,1.234-1.002,2.236-2.236,2.236l0,0H198.258L198.258,223.856z"/>
			<path fill="#004DDA" d="M207.574,235.038c-1.234,0-2.235-1.002-2.235-2.236l0,0c0-1.235,1.001-2.235,2.235-2.235l0,0h64.85
				c1.234,0,2.235,1,2.235,2.235l0,0c0,1.234-1.001,2.236-2.235,2.236l0,0H207.574L207.574,235.038z"/>
		</g>
		<g>
			<g>
				<path fill="#004DDA" d="M197.056,159.582c0.001-23.72,19.227-42.945,42.943-42.947l0,0c17.525,0.001,32.603,10.5,39.277,25.555
					l0,0c0.416,0.941-0.009,2.042-0.95,2.458l0,0c-0.94,0.418-2.041-0.008-2.458-0.949l0,0c-6.1-13.747-19.863-23.34-35.869-23.336
					l0,0c-10.834,0-20.627,4.386-27.729,11.486l0,0c-7.1,7.102-11.487,16.895-11.487,27.733l0,0
					c0,10.832,4.387,20.626,11.487,27.729l0,0c7.102,7.101,16.896,11.486,27.729,11.488l0,0c16.005,0.001,29.77-9.592,35.868-23.337
					l0,0c0.416-0.941,1.518-1.366,2.457-0.949l0,0c0.942,0.416,1.365,1.518,0.949,2.459l0,0
					c-6.673,15.053-21.751,25.551-39.274,25.555l0,0C216.283,202.525,197.057,183.294,197.056,159.582L197.056,159.582z"/>
				<g>
					<g>
						<path fill="#004DDA" d="M223.251,180.674c-0.49,0-0.97-0.2-1.317-0.547l0,0c-0.347-0.347-0.545-0.827-0.545-1.317l0,0v-6.077
							c-0.025-4.607,1.948-8.376,5.069-10.766l0,0c3.112-2.406,7.226-3.53,11.644-3.534l0,0h3.794
							c4.418,0.003,8.533,1.128,11.646,3.534l0,0c3.121,2.388,5.096,6.159,5.072,10.766l0,0v6.077c0,0.49-0.199,0.971-0.546,1.317
							l0,0c-0.348,0.347-0.827,0.547-1.318,0.547l0,0H223.251L223.251,180.674z M256.75,178.81v-1.863V178.81L256.75,178.81z
							 M228.741,164.912c-2.253,1.775-3.603,4.226-3.625,7.821l0,0v4.214h29.771v-4.214c-0.023-3.595-1.374-6.043-3.628-7.821l0,0
							c-2.262-1.762-5.574-2.754-9.363-2.751l0,0h-3.794c-0.005,0-0.011,0-0.017,0l0,0
							C234.301,162.161,230.999,163.151,228.741,164.912L228.741,164.912z"/>
						<path fill="#004DDA" d="M227.752,141.389c0.002-6.458,5.23-11.672,11.67-11.672l0,0c6.447,0.012,11.656,5.218,11.669,11.672
							l0,0c-0.002,6.438-5.22,11.665-11.669,11.666l0,0C232.979,153.053,227.756,147.829,227.752,141.389L227.752,141.389z
							 M231.48,141.389c0.007,4.376,3.563,7.931,7.943,7.939l0,0c4.389-0.008,7.935-3.562,7.94-7.939l0,0
							c0-4.401-3.55-7.944-7.94-7.946l0,0C235.04,133.451,231.487,136.991,231.48,141.389L231.48,141.389z"/>
					</g>
					<path fill="#004DDA" d="M215.853,180.674c-1.03,0-1.864-0.835-1.864-1.863l0,0c0-1.03,0.834-1.864,1.864-1.864l0,0h48.294
						c1.028,0,1.864,0.834,1.864,1.864l0,0c0,1.028-0.836,1.863-1.864,1.863l0,0H215.853L215.853,180.674z"/>
				</g>
			</g>
			<g>
				<path fill="#004DDA" d="M262.216,159.583c0.002-10.42,8.445-18.864,18.863-18.864l0,0c10.419,0,18.862,8.444,18.862,18.864l0,0
					c0,10.417-8.443,18.86-18.862,18.86l0,0C270.661,178.443,262.218,170,262.216,159.583L262.216,159.583z M265.942,159.583
					c0.015,8.358,6.777,15.12,15.137,15.135l0,0c8.358-0.015,15.121-6.777,15.137-15.135l0,0
					c-0.016-8.36-6.778-15.123-15.137-15.138l0,0C272.72,144.459,265.957,151.222,265.942,159.583L265.942,159.583z"/>
				<g>
					<path fill="#004DDA" d="M279.216,166.662v-14.165c0-1.029,0.835-1.863,1.864-1.863l0,0c1.027,0,1.861,0.834,1.861,1.863l0,0
						v14.165c0,1.03-0.834,1.865-1.861,1.865l0,0C280.051,168.527,279.216,167.692,279.216,166.662L279.216,166.662z"/>
					<path fill="#004DDA" d="M273.998,161.444c-1.029,0-1.863-0.835-1.863-1.864l0,0c0-1.028,0.834-1.862,1.863-1.862l0,0h14.164
						c1.028,0,1.863,0.834,1.863,1.862l0,0c0,1.029-0.835,1.864-1.863,1.864l0,0H273.998L273.998,161.444z"/>
				</g>
			</g>
		</g>
		<g>
			<path fill="#004DDA" d="M143.471,99.176c-0.491,0-0.971-0.197-1.318-0.544l0,0c-0.347-0.347-0.544-0.828-0.544-1.318l0,0V61.535
				c0-0.49,0.197-0.971,0.544-1.318l0,0c0.347-0.347,0.827-0.546,1.318-0.546l0,0h193.056c0.497,0,0.967,0.194,1.317,0.546l0,0
				c0.353,0.352,0.546,0.819,0.546,1.318l0,0v35.779c0,0.497-0.194,0.966-0.546,1.318l0,0c-0.353,0.351-0.82,0.544-1.317,0.544l0,0
				H143.471L143.471,99.176z M336.527,97.314V95.45V97.314L336.527,97.314z M145.334,95.45h189.33V63.397h-189.33V95.45
				L145.334,95.45z"/>
			<g>
				<g>
					<path fill="#004DDA" d="M156.144,73.741c-1.03,0-1.864-0.834-1.864-1.864l0,0c0-1.029,0.834-1.863,1.864-1.863l0,0h35.778
						c1.03,0,1.863,0.834,1.863,1.863l0,0c0,1.03-0.833,1.864-1.863,1.864l0,0H156.144L156.144,73.741z"/>
					<path fill="#004DDA" d="M156.143,81.288c-1.029,0-1.863-0.834-1.863-1.863l0,0c0-1.03,0.834-1.865,1.863-1.865l0,0h20.499
						c1.029,0,1.863,0.835,1.863,1.865l0,0c0,1.029-0.834,1.863-1.863,1.863l0,0H156.143L156.143,81.288z"/>
					<path fill="#004DDA" d="M156.143,88.835c-1.029,0-1.863-0.836-1.863-1.863l0,0c0-1.029,0.834-1.863,1.863-1.863l0,0h52.551
						c1.028,0,1.864,0.834,1.864,1.863l0,0c0,1.027-0.835,1.863-1.864,1.863l0,0H156.143L156.143,88.835z"/>
				</g>
				<g>
					<path fill="#004DDA" d="M307.085,73.741c-1.03,0-1.864-0.835-1.864-1.864l0,0c0-1.029,0.834-1.863,1.864-1.863l0,0h16.771
						c1.028,0,1.864,0.834,1.864,1.863l0,0c0,1.029-0.836,1.864-1.864,1.864l0,0H307.085L307.085,73.741z"/>
					<path fill="#004DDA" d="M307.085,81.288c-1.03,0-1.864-0.834-1.864-1.864l0,0c0-1.029,0.834-1.863,1.864-1.863l0,0h16.771
						c1.028,0,1.864,0.834,1.864,1.863l0,0c0,1.03-0.836,1.864-1.864,1.864l0,0H307.085L307.085,81.288z"/>
					<path fill="#004DDA" d="M307.085,88.835c-1.03,0-1.864-0.835-1.864-1.863l0,0c0-1.03,0.834-1.864,1.864-1.864l0,0h16.771
						c1.028,0,1.864,0.834,1.864,1.864l0,0c0,1.028-0.836,1.863-1.864,1.863l0,0H307.085L307.085,88.835z"/>
				</g>
			</g>
		</g>
	</g>
</g>
</svg>
