<?xml version="1.0" encoding="utf-8"?>
<!-- Generator: Adobe Illustrator 15.0.0, SVG Export Plug-In . SVG Version: 6.00 Build 0)  -->
<!DOCTYPE svg PUBLIC "-//W3C//DTD SVG 1.1//EN" "http://www.w3.org/Graphics/SVG/1.1/DTD/svg11.dtd">
<svg version="1.1" id="Layer_1" xmlns="http://www.w3.org/2000/svg" xmlns:xlink="http://www.w3.org/1999/xlink" x="0px" y="0px"
	 width="239px" height="239px" viewBox="0 0 239 239" enable-background="new 0 0 239 239" xml:space="preserve">
<path opacity="0.25" fill="#0060FF" enable-background="new    " d="M219.203,133.104c0-3.457-2.812-6.27-6.27-6.27
	c-3.459,0-6.271,2.812-6.271,6.27c0,3.459,2.812,6.271,6.271,6.271C216.391,139.374,219.203,136.562,219.203,133.104z
	 M212.934,136.057c-1.627,0-2.951-1.324-2.951-2.953c0-1.627,1.324-2.948,2.951-2.948s2.95,1.321,2.95,2.948
	S214.561,136.057,212.934,136.057z"/>
<path opacity="0.25" fill="#D5FF27" enable-background="new    " d="M214.811,203.934c-0.918,0-1.66,0.742-1.66,1.659v13.646
	c0,0.917,0.742,1.659,1.66,1.659c0.916,0,1.658-0.742,1.658-1.659v-13.646C216.469,204.676,215.727,203.934,214.811,203.934z"/>
<path opacity="0.25" fill="#FF7E00" enable-background="new    " d="M79.667,235.975c0.917,0,1.66-0.742,1.66-1.658
	c0-0.918-0.743-1.66-1.66-1.66H72.17c-0.917,0-1.659,0.742-1.659,1.66V239h3.319v-3.025H79.667z"/>
<path opacity="0.25" fill="#FF0094" enable-background="new    " d="M124.02,197.811l4.543-3.664
	c0.713-0.576,0.824-1.621,0.25-2.334c-0.576-0.711-1.621-0.824-2.334-0.25l-5.836,4.707c-0.342,0.275-0.561,0.678-0.606,1.115
	c-0.047,0.438,0.082,0.877,0.358,1.219l5.209,6.459l-6.365,5.136c-0.713,0.575-0.825,1.618-0.25,2.334l4.863,6.028
	c0.328,0.405,0.81,0.617,1.293,0.617c0.365,0,0.734-0.121,1.041-0.367c0.713-0.576,0.826-1.621,0.25-2.336l-3.82-4.735l6.365-5.136
	c0.344-0.276,0.562-0.678,0.607-1.114c0.046-0.438-0.082-0.878-0.357-1.22L124.02,197.811z"/>
<path opacity="0.25" fill="#9FFFFC" enable-background="new    " d="M184.164,222.492c-0.602,0-0.873-0.252-1.559-1.029
	c-0.756-0.859-1.896-2.156-4.049-2.156c-2.154,0-3.295,1.297-4.051,2.154c-0.686,0.779-0.957,1.031-1.559,1.031
	s-0.872-0.252-1.557-1.029c-0.756-0.857-1.896-2.156-4.049-2.156s-3.293,1.297-4.049,2.156c-0.686,0.777-0.957,1.029-1.559,1.029
	c-0.598,0-0.871-0.251-1.555-1.029c-0.756-0.857-1.896-2.156-4.049-2.156c-0.917,0-1.66,0.741-1.66,1.659
	c0,0.917,0.743,1.659,1.66,1.659c0.6,0,0.871,0.252,1.557,1.029c0.754,0.859,1.896,2.156,4.047,2.156
	c2.154,0,3.295-1.297,4.051-2.156c0.684-0.777,0.956-1.029,1.557-1.029c0.6,0,0.871,0.252,1.557,1.029
	c0.754,0.859,1.896,2.156,4.049,2.156s3.294-1.297,4.05-2.156c0.687-0.777,0.957-1.029,1.56-1.029c0.602,0,0.873,0.252,1.558,1.029
	c0.756,0.859,1.897,2.156,4.05,2.156c0.917,0,1.66-0.742,1.66-1.66C185.824,223.234,185.081,222.492,184.164,222.492z"/>
<path opacity="0.25" fill="#D5FF27" enable-background="new    " d="M21.316,220.529c-3.458,0-6.271,2.812-6.271,6.271
	c0,3.457,2.813,6.27,6.271,6.27s6.27-2.812,6.27-6.27C27.585,223.343,24.773,220.529,21.316,220.529z M21.316,229.751
	c-1.627,0-2.951-1.323-2.951-2.95c0-1.628,1.324-2.951,2.951-2.951c1.626,0,2.95,1.323,2.95,2.951
	C24.266,228.428,22.942,229.751,21.316,229.751z"/>
<path opacity="0.25" fill="#FFFF00" enable-background="new    " d="M45.117,186.229H31.47c-0.917,0-1.66,0.744-1.66,1.66
	c0,0.918,0.743,1.66,1.66,1.66h13.646c0.917,0,1.66-0.742,1.66-1.66C46.776,186.973,46.033,186.229,45.117,186.229z"/>
<path opacity="0.25" fill="#0060FF" enable-background="new    " d="M212.934,19.875c3.457,0,6.271-2.813,6.271-6.271
	s-2.812-6.271-6.271-6.271c-3.457,0-6.271,2.813-6.271,6.271S209.477,19.875,212.934,19.875z M212.934,10.653
	c1.627,0,2.95,1.324,2.95,2.951c0,1.626-1.323,2.95-2.95,2.95s-2.951-1.324-2.951-2.95S211.307,10.653,212.934,10.653z"/>
<path opacity="0.25" fill="#D5FF27" enable-background="new    " d="M216.469,99.739V86.093c0-0.917-0.742-1.66-1.658-1.66
	c-0.918,0-1.66,0.743-1.66,1.66v13.646c0,0.917,0.742,1.66,1.66,1.66C215.727,101.399,216.469,100.656,216.469,99.739z"/>
<path opacity="0.25" fill="#FF0094" enable-background="new    " d="M238.488,33.28L239,33.915v-3.179l-0.262,0.211
	C238.023,31.522,237.912,32.566,238.488,33.28z"/>
<path opacity="0.25" fill="#0060FF" enable-background="new    " d="M93.433,79.624c3.458,0,6.271-2.812,6.271-6.271
	c0-3.457-2.812-6.27-6.271-6.27c-3.457,0-6.27,2.812-6.27,6.27C87.163,76.812,89.976,79.624,93.433,79.624z M93.433,70.403
	c1.627,0,2.951,1.324,2.951,2.95c0,1.628-1.324,2.951-2.951,2.951s-2.95-1.323-2.95-2.951
	C90.482,71.728,91.806,70.403,93.433,70.403z"/>
<path opacity="0.25" fill="#D5FF27" enable-background="new    " d="M140.816,160.78c-3.459,0-6.271,2.812-6.271,6.271
	c0,3.457,2.812,6.27,6.271,6.27c3.457,0,6.27-2.812,6.27-6.27S144.273,160.78,140.816,160.78z M140.816,170
	c-1.627,0-2.951-1.322-2.951-2.949s1.324-2.951,2.951-2.951c1.625,0,2.949,1.324,2.949,2.951S142.441,170,140.816,170z"/>
<path opacity="0.25" fill="#D5FF27" enable-background="new    " d="M96.969,159.49v-13.647c0-0.917-0.744-1.659-1.66-1.659
	s-1.66,0.742-1.66,1.659v13.647c0,0.916,0.743,1.658,1.66,1.658S96.969,160.406,96.969,159.49z"/>
<path opacity="0.25" fill="#FFFF00" enable-background="new    " d="M164.616,129.799c0.917,0,1.659-0.742,1.659-1.66
	c0-0.916-0.742-1.658-1.659-1.658h-13.646c-0.918,0-1.66,0.742-1.66,1.658c0,0.918,0.742,1.66,1.66,1.66H164.616z"/>
<path opacity="0.25" fill="#9FFFFC" enable-background="new    " d="M163.295,101.963c-0.686,0.777-0.957,1.029-1.559,1.029
	c-0.598,0-0.87-0.252-1.555-1.029c-0.756-0.858-1.896-2.157-4.049-2.157c-0.917,0-1.66,0.743-1.66,1.66s0.743,1.659,1.66,1.659
	c0.6,0,0.871,0.252,1.557,1.03c0.754,0.858,1.896,2.157,4.047,2.157c2.154,0,3.295-1.299,4.051-2.157
	c0.684-0.778,0.956-1.03,1.557-1.03c0.6,0,0.871,0.252,1.557,1.03c0.754,0.858,1.896,2.157,4.049,2.157s3.294-1.299,4.05-2.157
	c0.687-0.778,0.957-1.03,1.56-1.03c0.602,0,0.873,0.252,1.558,1.03c0.756,0.858,1.897,2.157,4.05,2.157
	c0.917,0,1.66-0.744,1.66-1.66c0-0.917-0.743-1.66-1.66-1.66c-0.602,0-0.873-0.252-1.559-1.029
	c-0.756-0.859-1.896-2.157-4.049-2.157c-2.153,0-3.295,1.298-4.051,2.157c-0.686,0.777-0.957,1.029-1.559,1.029
	s-0.872-0.252-1.557-1.029c-0.756-0.858-1.896-2.157-4.049-2.157S164.051,101.104,163.295,101.963z"/>
<path opacity="0.25" fill="#D5FF27" enable-background="new    " d="M21.316,101.03c-3.458,0-6.271,2.812-6.271,6.271
	c0,3.457,2.813,6.27,6.271,6.27s6.27-2.812,6.27-6.27C27.585,103.843,24.773,101.03,21.316,101.03z M21.316,110.251
	c-1.627,0-2.951-1.324-2.951-2.95c0-1.628,1.324-2.951,2.951-2.951c1.626,0,2.95,1.323,2.95,2.951
	C24.266,108.927,22.942,110.251,21.316,110.251z"/>
<path opacity="0.25" fill="#FFFF00" enable-background="new    " d="M31.47,70.049h13.646c0.917,0,1.66-0.744,1.66-1.66
	c0-0.917-0.743-1.66-1.66-1.66H31.47c-0.917,0-1.66,0.743-1.66,1.66C29.811,69.305,30.554,70.049,31.47,70.049z"/>
<path opacity="0.25" fill="#D5FF27" enable-background="new    " d="M140.816,41.28c-3.459,0-6.271,2.812-6.271,6.27
	s2.812,6.271,6.271,6.271c3.457,0,6.27-2.812,6.27-6.271C147.086,44.093,144.273,41.28,140.816,41.28z M140.816,50.501
	c-1.627,0-2.951-1.323-2.951-2.951c0-1.627,1.324-2.95,2.951-2.95c1.625,0,2.949,1.323,2.949,2.95
	C143.768,49.178,142.441,50.501,140.816,50.501z"/>
<path opacity="0.25" fill="#D5FF27" enable-background="new    " d="M95.309,41.648c0.917,0,1.66-0.742,1.66-1.659V26.343
	c0-0.917-0.744-1.659-1.66-1.659s-1.66,0.742-1.66,1.659v13.646C93.649,40.906,94.393,41.648,95.309,41.648z"/>
<path opacity="0.25" fill="#FFFF00" enable-background="new    " d="M150.971,10.299h13.646c0.917,0,1.659-0.743,1.659-1.66
	s-0.742-1.659-1.659-1.659h-13.646c-0.918,0-1.66,0.742-1.66,1.659S150.053,10.299,150.971,10.299z"/>
<path opacity="0.25" fill="#FF7E00" enable-background="new    " d="M62.332,3.614c-0.916,0-1.66,0.742-1.66,1.659v7.745
	c0,0.917,0.744,1.66,1.66,1.66c0.917,0,1.66-0.743,1.66-1.66V6.933h8.179c0.917,0,1.66-0.742,1.66-1.659V0h-3.319v3.614H62.332z"/>
</svg>
