<?xml version="1.0" encoding="utf-8"?>
<!-- Generator: Adobe Illustrator 15.0.0, SVG Export Plug-In . SVG Version: 6.00 Build 0)  -->
<!DOCTYPE svg PUBLIC "-//W3C//DTD SVG 1.1//EN" "http://www.w3.org/Graphics/SVG/1.1/DTD/svg11.dtd">
<svg version="1.1" id="Layer_1" xmlns="http://www.w3.org/2000/svg" xmlns:xlink="http://www.w3.org/1999/xlink" x="0px" y="0px"
	 width="239px" height="239px" viewBox="0 0 239 239" enable-background="new 0 0 239 239" xml:space="preserve">
<path opacity="0.1" fill="#FFFFFF" enable-background="new    " d="M213.203,133.104c0-3.457-2.812-6.27-6.27-6.27
	c-3.459,0-6.271,2.812-6.271,6.27c0,3.459,2.812,6.271,6.271,6.271C210.391,139.374,213.203,136.562,213.203,133.104z
	 M206.934,136.057c-1.627,0-2.951-1.324-2.951-2.953c0-1.627,1.324-2.947,2.951-2.947s2.95,1.32,2.95,2.947
	S208.561,136.057,206.934,136.057z"/>
<path opacity="0.1" fill="#FFFFFF" enable-background="new    " d="M208.811,203.934c-0.918,0-1.66,0.742-1.66,1.659v13.646
	c0,0.917,0.742,1.659,1.66,1.659c0.916,0,1.658-0.742,1.658-1.659v-13.646C210.469,204.676,209.727,203.934,208.811,203.934z"/>
<path opacity="0.1" fill="#FFFFFF" enable-background="new    " d="M73.667,235.975c0.917,0,1.66-0.742,1.66-1.658
	c0-0.918-0.743-1.659-1.66-1.659H66.17c-0.917,0-1.659,0.741-1.659,1.659V239h3.319v-3.025H73.667z"/>
<path opacity="0.1" fill="#FFFFFF" enable-background="new    " d="M39.117,186.229H25.47c-0.917,0-1.66,0.744-1.66,1.66
	c0,0.918,0.743,1.66,1.66,1.66h13.646c0.917,0,1.66-0.742,1.66-1.66C40.776,186.973,40.033,186.229,39.117,186.229z"/>
<path opacity="0.1" fill="#FFFFFF" enable-background="new    " d="M210.469,99.739V86.093c0-0.917-0.742-1.66-1.658-1.66
	c-0.918,0-1.66,0.743-1.66,1.66v13.646c0,0.917,0.742,1.66,1.66,1.66C209.727,101.399,210.469,100.656,210.469,99.739z"/>
<path opacity="0.1" fill="#FFFFFF" enable-background="new    " d="M90.969,159.49v-13.647c0-0.917-0.744-1.659-1.66-1.659
	s-1.66,0.742-1.66,1.659v13.647c0,0.916,0.743,1.658,1.66,1.658S90.969,160.406,90.969,159.49z"/>
<path opacity="0.1" fill="#FFFFFF" enable-background="new    " d="M158.616,129.799c0.917,0,1.659-0.742,1.659-1.66
	c0-0.916-0.742-1.658-1.659-1.658h-13.646c-0.919,0-1.66,0.742-1.66,1.658c0,0.918,0.741,1.66,1.66,1.66H158.616z"/>
<path opacity="0.1" fill="#FFFFFF" enable-background="new    " d="M25.47,70.049h13.646c0.917,0,1.66-0.744,1.66-1.66
	c0-0.917-0.743-1.66-1.66-1.66H25.47c-0.917,0-1.66,0.743-1.66,1.66C23.811,69.305,24.554,70.049,25.47,70.049z"/>
<path opacity="0.1" fill="#FFFFFF" enable-background="new    " d="M134.816,41.28c-3.459,0-6.271,2.812-6.271,6.27
	s2.812,6.271,6.271,6.271c3.457,0,6.27-2.812,6.27-6.271C141.086,44.093,138.273,41.28,134.816,41.28z M134.816,50.501
	c-1.627,0-2.951-1.323-2.951-2.951c0-1.627,1.324-2.95,2.951-2.95c1.625,0,2.949,1.323,2.949,2.95
	C137.768,49.178,136.441,50.501,134.816,50.501z"/>
<path opacity="0.1" fill="#FFFFFF" enable-background="new    " d="M144.971,10.299h13.646c0.917,0,1.658-0.743,1.658-1.66
	s-0.741-1.659-1.658-1.659h-13.646c-0.918,0-1.66,0.742-1.66,1.659S144.053,10.299,144.971,10.299z"/>
<path opacity="0.1" fill="#FFFFFF" enable-background="new    " d="M56.332,3.614c-0.916,0-1.66,0.742-1.66,1.659v7.745
	c0,0.917,0.744,1.66,1.66,1.66c0.917,0,1.66-0.743,1.66-1.66V6.933h8.179c0.917,0,1.66-0.742,1.66-1.659V0h-3.319v3.614H56.332z"/>
</svg>
